<svg xmlns="http://www.w3.org/2000/svg" width="511.443" height="1118.778" viewBox="0 0 511.443 1118.778">
  <g id="Group_258" data-name="Group 258" transform="translate(-1214.19 32.982)">
    <path id="Path_6" data-name="Path 6" d="M174.78,493.216c.187-.1.374-.216.561-.317l30.89-17.849a99.829,99.829,0,0,0,49.919-86.466V215.653L106.379,302.119l-30.89,17.834,30.89-17.834-30.89,17.834A99.844,99.844,0,0,0,25.57,406.419V579.365l149.21-86.149c.187-.1.374-.216.561-.317l30.89-17.849" transform="translate(1469.483 16.765)" fill="#fe2b5c"/>
    <path id="Path_7" data-name="Path 7" d="M88.91,333.48c.079-.043.159-.092.238-.134l13.113-7.577a42.378,42.378,0,0,0,21.191-36.705v-73.41L59.874,252.358l-13.113,7.571,13.113-7.571-13.113,7.571A42.384,42.384,0,0,0,25.57,296.634V370.05L88.91,333.48c.079-.043.159-.092.238-.134l13.113-7.577" transform="translate(1452.483 406.383)" fill="#2bcefe"/>
    <path id="Path_382" data-name="Path 382" d="M139.519,427.623c.143-.077.286-.165.429-.242l23.59-13.631a76.238,76.238,0,0,0,38.122-66.033V215.653L87.282,281.686l-23.59,13.62,23.59-13.62-23.59,13.62A76.249,76.249,0,0,0,25.57,361.338V493.414l113.949-65.791c.143-.077.286-.165.429-.242l23.59-13.631" transform="translate(1337.483 592.383)" fill="#fe2b5c"/>
    <path id="Path_383" data-name="Path 383" d="M81.608,319.9c.07-.038.141-.081.211-.119l11.6-6.7A37.493,37.493,0,0,0,112.168,280.6V215.653L55.919,248.127l-11.6,6.7,11.6-6.7-11.6,6.7A37.5,37.5,0,0,0,25.57,287.3v64.953L81.608,319.9c.07-.038.141-.081.211-.119l11.6-6.7" transform="translate(1541.483 567.383)" fill="#fecd2b"/>
    <path id="Path_2" data-name="Path 2" d="M189.653,520.883c.206-.111.412-.237.617-.348l33.969-19.628a109.781,109.781,0,0,0,54.895-95.085V215.653l-164.7,95.084L80.465,330.35l33.969-19.612L80.465,330.35A109.8,109.8,0,0,0,25.57,425.434V615.619l164.083-94.736c.206-.111.412-.237.617-.348l33.969-19.628" transform="translate(1188.62 -42.895)" fill="#2bcefe"/>
    <path id="Path_3" data-name="Path 3" d="M140.778,429.964c.144-.078.289-.167.433-.245l23.851-13.781a77.08,77.08,0,0,0,38.543-66.762V215.653L87.964,282.415l-23.851,13.77,23.851-13.77-23.851,13.77A77.091,77.091,0,0,0,25.57,362.947V496.482l115.208-66.517c.144-.078.289-.167.433-.245l23.851-13.781" transform="translate(1226.412 332.06)" fill="#fecd2b"/>
    <path id="Path_4" data-name="Path 4" d="M142.575,433.308c.147-.079.293-.169.44-.248l24.223-14a78.283,78.283,0,0,0,39.145-67.8V215.653l-117.445,67.8L64.715,297.441l24.223-13.985L64.715,297.441a78.294,78.294,0,0,0-39.145,67.8V500.863l117.005-67.555c.147-.079.293-.169.44-.248l24.223-14" transform="translate(1494.35 -248.635)" fill="#fecd2b"/>
  </g>
</svg>
