<svg id="bucket" xmlns="http://www.w3.org/2000/svg" width="33.705" height="31.748" viewBox="0 0 33.705 31.748">
  <path id="Path_2" data-name="Path 2" d="M19.308,2.651h0c-9.058,0-14.762,3.122-14.379,5.63.109.715.415,2.666.8,5.12C1.29,15.124-.18,17.92.017,20.2c.233,2.7,2.659,5.585,7.989,6.083,3.043.284,6.7-1.384,9.075-4.235a2.583,2.583,0,1,1,2.286,1.276c-2.825,3.641-7.123,5.838-11.2,5.583.095.6.13.828.177,1.131.168,1.067,4.333,4.357,10.959,4.363h0c6.627-.006,10.792-3.3,10.959-4.363S33.3,10.827,33.687,8.281C34.07,5.773,28.366,2.651,19.308,2.651ZM2.591,19.975c-.1-1.185.839-2.764,3.551-3.949.39,2.475.814,5.163,1.186,7.524C4.367,22.967,2.716,21.424,2.591,19.975ZM19.307,12.11C12.68,12.106,7.98,9.645,7.98,8.727s4.7-3.377,11.327-3.373S30.639,7.813,30.636,8.727,25.935,12.106,19.307,12.11Z" transform="translate(0 -2.651)" fill="#d3d3d3"/>
</svg>
