<svg id="Layer_1" data-name="Layer 1" xmlns="http://www.w3.org/2000/svg" viewBox="0 0 932.88 258.29"><defs><style>.cls-1,.cls-7{fill:#eda239;}.cls-2,.cls-5{fill:#211d70;}.cls-3,.cls-6{fill:#fff;}.cls-11,.cls-4{fill:#e8972e;}.cls-10,.cls-4,.cls-5,.cls-6,.cls-7,.cls-8,.cls-9{fill-rule:evenodd;}.cls-8{fill:#f9c82d;}.cls-9{fill:#75c2e5;}.cls-10{fill:#ec1c24;}</style></defs><title>SARC final logo</title><path class="cls-1" d="M286.31,132a129.56,129.56,0,1,0,10.15,50.27A128.77,128.77,0,0,0,286.31,132Zm3.91,50.27a122.91,122.91,0,1,1-36-86.91A122.11,122.11,0,0,1,290.22,182.31Z" transform="translate(-38.17 -53.16)"/><path class="cls-2" d="M234.55,183.42l0,1.86L218,184.69a50.06,50.06,0,0,1-21.34,38.89l9.72,13.55c-25.59,17.78-57.4,13.89-76.18.7L139,224.32a50,50,0,0,1-22.44-40c0,.29,0,.58,0,.87l-16.42.53c0-.74,0-1.53,0-2.29,0-37.51,30.11-67.93,67.23-67.93S234.55,145.91,234.55,183.42Z" transform="translate(-38.17 -53.16)"/><path class="cls-2" d="M167.32,56.91a125.4,125.4,0,1,0,125.39,125.4A125.4,125.4,0,0,0,167.32,56.91Zm0,203.4a78,78,0,1,1,55.15-22.85A77.5,77.5,0,0,1,167.32,260.31Z" transform="translate(-38.17 -53.16)"/><path class="cls-1" d="M284.47,132.82a127.58,127.58,0,1,0,10,49.49A126.73,126.73,0,0,0,284.47,132.82ZM167.32,306a123.66,123.66,0,1,1,87.42-36.22A122.8,122.8,0,0,1,167.32,306Z" transform="translate(-38.17 -53.16)"/><path class="cls-3" d="M167.32,101.32a81,81,0,1,0,81,81A81,81,0,0,0,167.32,101.32Zm55.15,136.14a78,78,0,1,1,22.85-55.15A77.5,77.5,0,0,1,222.47,237.46Z" transform="translate(-38.17 -53.16)"/><path class="cls-3" d="M234.55,183.42l0,1.86L218,184.69a50.06,50.06,0,0,1-21.34,38.89l9.72,13.55c-25.59,17.78-57.4,13.89-76.18.7L139,224.32a50,50,0,0,1-22.44-40c0,.29,0,.58,0,.87l-16.42.53c0-.74,0-1.53,0-2.29,0-37.51,30.11-67.93,67.23-67.93S234.55,145.91,234.55,183.42Z" transform="translate(-38.17 -53.16)"/><path class="cls-1" d="M226.7,122.92a84,84,0,1,0,24.59,59.39A83.42,83.42,0,0,0,226.7,122.92ZM167.32,260.31a78,78,0,1,1,55.15-22.85A77.5,77.5,0,0,1,167.32,260.31Z" transform="translate(-38.17 -53.16)"/><path class="cls-3" d="M72.15,209.59a4.82,4.82,0,0,0,2.22-1.46q1.18-1.57.49-4.57a9.5,9.5,0,0,0-1-2.83,2.83,2.83,0,0,0-3.24-1.49A2.07,2.07,0,0,0,69,200.69a11.43,11.43,0,0,0-.35,3.56l0,2.71a16.23,16.23,0,0,1-.62,5.63,5.89,5.89,0,0,1-4.57,3.58A6.93,6.93,0,0,1,57.66,215Q55,213.16,54,208.6a10.93,10.93,0,0,1,.49-6.95,7.23,7.23,0,0,1,5.12-4.14l1.09,4.78a3.45,3.45,0,0,0-2.59,2.61,6.7,6.7,0,0,0,.08,3.1,5.87,5.87,0,0,0,1.49,3,2.49,2.49,0,0,0,2.42.68,2.06,2.06,0,0,0,1.63-1.59,14.71,14.71,0,0,0,.26-3.39l0-4.4a10.91,10.91,0,0,1,.78-4.51,5.89,5.89,0,0,1,4.34-3.23,7,7,0,0,1,6,1.28c1.82,1.35,3.07,3.56,3.78,6.63a12,12,0,0,1-.42,7.88,7.15,7.15,0,0,1-5.19,4Z" transform="translate(-38.17 -53.16)"/><path class="cls-3" d="M51.56,173.22l4.3-.07.11,7.3,20-.32.08,5.13-20,.33.12,7.33-4.31.07Z" transform="translate(-38.17 -53.16)"/><path class="cls-3" d="M52.48,165.7l1.16-5.06L68.18,164a8.36,8.36,0,0,0,3.7.23c1.46-.3,2.42-1.45,2.89-3.47s.09-3.46-1.1-4.36a8.37,8.37,0,0,0-3.43-1.4l-14.55-3.32,1.16-5.05,14.55,3.32A12.54,12.54,0,0,1,77,152.44q3.36,3.08,1.95,9.25t-5.77,7.5A12.47,12.47,0,0,1,67,169Z" transform="translate(-38.17 -53.16)"/><path class="cls-3" d="M67.23,125.07a8.09,8.09,0,0,1,4.65-2.28,10.8,10.8,0,0,1,4.28.25,18.91,18.91,0,0,1,3.78,1.43,16.12,16.12,0,0,1,6.4,5.51,8.84,8.84,0,0,1,.27,9.35l-4.83,9.35L60.2,137.54,65,128.19A12.54,12.54,0,0,1,67.23,125.07Zm-1,10,14.08,7.28,2.17-4.19a5.09,5.09,0,0,0-.84-6.1,12.21,12.21,0,0,0-3.76-2.82,11.19,11.19,0,0,0-5.59-1.57q-2.31.12-3.9,3.22Z" transform="translate(-38.17 -53.16)"/><path class="cls-3" d="M89.73,101.64l-8.5,9.73,3.89,3.39,7.79-8.93,3.18,2.77-7.8,8.94L93,121.65l8.89-10.19,3.29,2.88L93,128.27l-18.3-16L86.49,98.81Z" transform="translate(-38.17 -53.16)"/><path class="cls-3" d="M93.14,92.75l4.37-3.07L115.18,98l-9.74-13.86,3.89-2.73,14,19.88-4.17,2.93-18-8.39L111,109.9l-3.89,2.73Z" transform="translate(-38.17 -53.16)"/><path class="cls-3" d="M134,70.69l1.59,4-6.79,2.7L136.21,96l-4.77,1.9-7.39-18.58L117.23,82l-1.59-4Z" transform="translate(-38.17 -53.16)"/><path class="cls-3" d="M157.74,66.61l5.76-.34L173.56,90l-5.52.32-1.91-4.89-9,.54-1.36,5.08-5.32.32Zm.55,15.11,6.25-.37L160.89,72Z" transform="translate(-38.17 -53.16)"/><path class="cls-3" d="M179.53,66.63l5,.87-3.42,19.63,12,2.09-.75,4.3-17-3Z" transform="translate(-38.17 -53.16)"/><path class="cls-3" d="M204.1,71.82l4.76,2.06-5.92,13.7a8.36,8.36,0,0,0-.9,3.59c0,1.49,1,2.65,2.89,3.47s3.38.72,4.49-.29a8.52,8.52,0,0,0,2-3.12l5.92-13.69,4.75,2L216.17,93.3a12.69,12.69,0,0,1-3.5,5.06c-2.43,1.82-5.57,1.9-9.45.23s-6-4-6.32-7a12.5,12.5,0,0,1,1.28-6Z" transform="translate(-38.17 -53.16)"/><path class="cls-3" d="M243.38,94.78l5.71,4.62-15.27,18.89-3.7-3,10.33-12.78,1.26-1.53L243,99.47l-16.41,13-3.85-3.12,9.24-18.74-1.23,1.54q-.78,1-1.23,1.56l-10.33,12.77-3.7-3,15.27-18.9,5.78,4.67L228,106.87Z" transform="translate(-38.17 -53.16)"/><path class="cls-3" d="M255.53,106.66l3.12,4.35-8.13,17.74,13.77-9.86,2.77,3.86L247.31,136.9l-3-4.15,8.22-18.11-14,10-2.76-3.86Z" transform="translate(-38.17 -53.16)"/><path class="cls-3" d="M250.69,144.73l-2.2-4.56,21.9-10.52,2.19,4.57Z" transform="translate(-38.17 -53.16)"/><path class="cls-3" d="M281.54,167.72a6.13,6.13,0,0,1-1.27,2.55,7.47,7.47,0,0,1-1.8,1.56,6.75,6.75,0,0,1-2.43.9,7.3,7.3,0,0,1-3.51-.27A4.87,4.87,0,0,1,269.7,170a4.62,4.62,0,0,1-1.47,2.7,8,8,0,0,1-3.62,1.36l-1.61.29a11.43,11.43,0,0,0-2.19.53,2,2,0,0,0-1.2,1.17l-.6.1-1-5.54c.5-.25.91-.43,1.22-.56a12.34,12.34,0,0,1,2-.58l2.22-.42a4.62,4.62,0,0,0,2.91-1.34,4.12,4.12,0,0,0,.25-3l-.87-4.9-9.38,1.67-.88-4.91,23.92-4.27,2.05,11.5A10.7,10.7,0,0,1,281.54,167.72ZM276.15,158l-6.43,1.15,1,5.4a5.76,5.76,0,0,0,.82,2.35,2.73,2.73,0,0,0,2.95.94,3,3,0,0,0,2.67-1.9,5.12,5.12,0,0,0,0-2.4Z" transform="translate(-38.17 -53.16)"/><path class="cls-3" d="M277.83,198.61l.79-12.89-5.14-.32-.73,11.83-4.21-.26.73-11.83-6.24-.39-.83,13.49-4.36-.27L259,179.51,283.22,181l-1.1,17.87Z" transform="translate(-38.17 -53.16)"/><path class="cls-3" d="M280.47,207.43l-1.43,4.9-19.13-5.57-3.4,11.7-4.2-1.22,4.83-16.6Z" transform="translate(-38.17 -53.16)"/><path class="cls-3" d="M269.18,237.29l-2.85,5-25.39-4.47,2.73-4.81,5.13,1.06,4.44-7.82-3.53-3.9,2.63-4.64Zm-13-7.74L253.11,235l9.84,2Z" transform="translate(-38.17 -53.16)"/><path class="cls-3" d="M247.44,266.55l-3.23-2.84,4.83-5.48L234,245l3.39-3.86,15,13.2,4.84-5.51,3.23,2.84Z" transform="translate(-38.17 -53.16)"/><path class="cls-3" d="M223.7,254.54l3.89-3.25,15.57,18.65-3.89,3.24Z" transform="translate(-38.17 -53.16)"/><path class="cls-3" d="M205.69,268.37q1-3.83,5.59-6.39t8.36-1.44q5,1.21,8.14,6.92T229.45,278q-1,3.83-5.58,6.39c-3.05,1.71-5.83,2.19-8.37,1.44q-4.86-1.11-8.12-6.93T205.69,268.37Zm4.59,1.66a12.15,12.15,0,0,0,6.19,11,5.85,5.85,0,0,0,5.29-.41,5.92,5.92,0,0,0,3.13-4.31,12,12,0,0,0-6.2-11,6.33,6.33,0,0,0-8.41,4.72Z" transform="translate(-38.17 -53.16)"/><path class="cls-3" d="M205.06,292.47l-5.19,1.31-13.54-14,4.15,16.42-4.61,1.17-6-23.55,4.94-1.25,13.86,14.27-4.22-16.71,4.61-1.16Z" transform="translate(-38.17 -53.16)"/><path class="cls-3" d="M173,281.49a5,5,0,0,0-1-2.48c-.86-1-2.32-1.46-4.37-1.42a9.31,9.31,0,0,0-3,.44,2.82,2.82,0,0,0-2.13,2.85,2.08,2.08,0,0,0,1.1,1.85,12,12,0,0,0,3.4,1.08l2.66.53a16.39,16.39,0,0,1,5.38,1.78,5.91,5.91,0,0,1,2.55,5.21,7,7,0,0,1-2.32,5.46q-2.39,2.2-7.06,2.28a10.92,10.92,0,0,1-6.7-1.93,7.22,7.22,0,0,1-3-5.86l4.9-.08a3.46,3.46,0,0,0,2,3.08,6.66,6.66,0,0,0,3,.56,5.81,5.81,0,0,0,3.21-.84,2.52,2.52,0,0,0,1.17-2.23,2.08,2.08,0,0,0-1.22-1.92,14.4,14.4,0,0,0-3.26-1l-4.3-.94a10.93,10.93,0,0,1-4.25-1.69,5.93,5.93,0,0,1-2.26-4.93,6.94,6.94,0,0,1,2.49-5.57c1.7-1.49,4.12-2.27,7.27-2.32A12,12,0,0,1,175,275.5a7.15,7.15,0,0,1,2.86,5.91Z" transform="translate(-38.17 -53.16)"/><path class="cls-3" d="M137,292a10.07,10.07,0,0,1-8.07.36q-5.76-2-7.09-6.74a8.75,8.75,0,0,1-.08-4.83l4.82,1.69a6.78,6.78,0,0,0,.31,2.9,5,5,0,0,0,3.29,2.82,5,5,0,0,0,4.79-.69,10.82,10.82,0,0,0,3.57-5.44q1.35-3.86.46-6.33a5.19,5.19,0,0,0-3.32-3.31,4.76,4.76,0,0,0-4.35.33,7.69,7.69,0,0,0-2.12,2.24l-4.79-1.67a11,11,0,0,1,5.3-5,9.82,9.82,0,0,1,7.34-.07,10.38,10.38,0,0,1,6.62,5.88q1.71,4.17-.24,9.73Q141.38,289.82,137,292Z" transform="translate(-38.17 -53.16)"/><path class="cls-3" d="M98.74,270.83l10.8,7.08,2.83-4.31-9.92-6.51,2.31-3.52,9.92,6.5,3.42-5.23-11.3-7.4,2.4-3.66,15.47,10.15-13.32,20.31-15-9.82Z" transform="translate(-38.17 -53.16)"/><path class="cls-3" d="M89.75,268.71,86.2,265l14.33-13.84-8.47-8.77,3.14-3,12,12.43Z" transform="translate(-38.17 -53.16)"/><path class="cls-3" d="M73.34,250.36,70.65,246,87.56,235.5l-6.44-10.35,3.7-2.31L94,237.52Z" transform="translate(-38.17 -53.16)"/><path class="cls-4" d="M218.08,182.63c0,.15,0,.3,0,.45s0,.39,0,.58a.48.48,0,0,0,0,.12l0,.91a50.06,50.06,0,0,1-21.34,38.89l9.72,13.55c-25.59,17.78-57.4,13.89-76.18.7L139,224.32a50,50,0,0,1-22.44-40c0-.15,0-.29,0-.44,0-.41,0-.83,0-1.24,0-27.74,22.75-50.23,50.8-50.23S218.08,154.89,218.08,182.63Z" transform="translate(-38.17 -53.16)"/><path class="cls-5" d="M171.31,141.22a54,54,0,0,1,7.34,1.22l.93-3.56a43,43,0,0,1,9,3.56l-1.72,3.37a38.89,38.89,0,0,1,6.25,4.11l2.57-3a39.76,39.76,0,0,1,6.6,6.47l-2.82,2.5a39.54,39.54,0,0,1,4.39,6.34l3.35-1.92a46,46,0,0,1,3.55,8.6l-3.41,1.16a35.57,35.57,0,0,1,1.4,7.1l4-.2a32.76,32.76,0,0,1,.1,9.38l-4-.29a38.35,38.35,0,0,1-1.23,7.87l3.53,1.07a47.41,47.41,0,0,1-3.28,8.61l-3.48-1.69a37.93,37.93,0,0,1-4.35,6.42l3.16,2.47a46.91,46.91,0,0,1-6.65,6.49l-2.33-2.86a38.76,38.76,0,0,1-6.51,4.55l1.69,3.44a57.89,57.89,0,0,1-8.49,3.5l-1.07-3.52a37.17,37.17,0,0,1-7.49,1.44l.16,3.95a62.11,62.11,0,0,1-9.15-.08V224a38.45,38.45,0,0,1-7.81-1.39l-1,3.46a48.85,48.85,0,0,1-8.14-3.35l1.7-3.1a37.77,37.77,0,0,1-6.53-4.37l-2.69,3a40.53,40.53,0,0,1-6.45-6.36l2.75-2.48a41,41,0,0,1-4.46-6.46L127.43,205a58.18,58.18,0,0,1-3.69-8.59l3.63-1.21a39.14,39.14,0,0,1-1.49-7.6l-4.26,0a83.73,83.73,0,0,1,0-8.82l4,.16a39.81,39.81,0,0,1,1.32-7.62l-3.76-.94a40.63,40.63,0,0,1,3.29-8.23l3.31,1.8a40,40,0,0,1,4.36-6.74l-3-2.5a45.6,45.6,0,0,1,6.38-6.68l2.64,3a39.26,39.26,0,0,1,6.28-4.5L144.62,143a58.91,58.91,0,0,1,8.74-3.81l1.34,3.68a40.86,40.86,0,0,1,7.61-1.63l-.21-4.19a60.29,60.29,0,0,1,9.37.13Z" transform="translate(-38.17 -53.16)"/><path class="cls-6" d="M167.36,144.32a38.31,38.31,0,1,1-38.68,38.31,38.49,38.49,0,0,1,38.68-38.31Z" transform="translate(-38.17 -53.16)"/><path class="cls-7" d="M234.55,183.42l0,1.86L218,184.69h0c0-.3,0-.6,0-.91a.48.48,0,0,1,0-.12c0-.19,0-.38,0-.58v-.45c0-27.74-22.75-50.23-50.8-50.23s-50.8,22.49-50.8,50.23c0,.41,0,.83,0,1.24,0,.15,0,.29,0,.44s0,.58,0,.87l-16.42.53c0-.74,0-1.53,0-2.29,0-37.51,30.11-67.93,67.23-67.93S234.55,145.91,234.55,183.42Z" transform="translate(-38.17 -53.16)"/><path class="cls-5" d="M233,183.62v-.42a65.66,65.66,0,1,0-131.3,1l14.76-.35c0-.41,0-.83,0-1.24,0-27.74,22.75-50.23,50.8-50.23s50.8,22.49,50.8,50.23c0,.15,0,.3,0,.45Z" transform="translate(-38.17 -53.16)"/><path class="cls-6" d="M229.09,169.82a1.45,1.45,0,0,0-1.74-1.12l-7.8,1.84c0,.15,0,.32.08.48a.48.48,0,0,0,.65.39l2.08-.53c.3,0,.36.1.44.33s.11.31.17.46c.12.34-.25.49-.52.53l-2.44.45c.07.31.15.61.23.91l7.62-1.37a2.63,2.63,0,0,0,1.14-.52C229.51,171.25,229.27,170.43,229.09,169.82Zm-1.52,1.4-2.57.39c-.41.08-.85.16-.9-.33,0-.06,0-.13,0-.2s0-.36-.06-.54l3.29-.84C228.26,169.59,228.82,171,227.57,171.22Z" transform="translate(-38.17 -53.16)"/><path class="cls-6" d="M220.33,174.51l9.18-1.21.26,0c.48.19.36.61,0,.79l-4.64,2.28,4.63-.41a.63.63,0,0,1,.55.16c0,.13.07.27.1.41a.32.32,0,0,1-.25.46l-8.81.77c-.59.05-1-.51-.39-.79l4.17-2-4,.42-.27,0c-.28,0-.53,0-.54-.3s0-.35,0-.52Z" transform="translate(-38.17 -53.16)"/><path class="cls-6" d="M220.92,178.62l9.67-.41,0,.41c0,.42-.26.7-.72.77l-8.35.31c-.42,0-.6-.23-.61-.6,0-.15,0-.31,0-.48Z" transform="translate(-38.17 -53.16)"/><path class="cls-6" d="M217.91,164.78l9.09-3.2.15.37c.17.41.28.71-.13.91-2.62.91-5.68,1.85-8.3,2.76-.41.08-.51,0-.64-.39l-.17-.45Z" transform="translate(-38.17 -53.16)"/><path class="cls-6" d="M226.27,159.38,225.19,157l-8.26,3.49a.61.61,0,1,0,.48,1.11l1.91-.8c.32-.14.5.06.64.3s.37.65.57,1,.56.34.94.25l4.29-1.72A.94.94,0,0,0,226.27,159.38Zm-1.5.56-2.7,1.08c-.24.09-.74.14-.87-.15-.06-.11-.11-.22-.16-.33s-.07-.33.18-.46l3.07-1.3c.49-.21.65.16.76.58A.48.48,0,0,1,224.77,159.94Z" transform="translate(-38.17 -53.16)"/><path class="cls-6" d="M218.65,167.21c.14.56.29,1.12.44,1.67s1.13.32,1-.26-.14-.86-.21-1.28c2.65-.81,5.31-1.6,8-2.4.46-.13.21-1.11-.37-.94l-8.61,2.59a.46.46,0,0,0-.26.62Z" transform="translate(-38.17 -53.16)"/><path class="cls-6" d="M203.22,133.62l.67.58.7-.85a1.11,1.11,0,0,0-.25-1.49L203,131a1.36,1.36,0,0,0-1.78.1c-.36.39-.71.78-1.06,1.18a1.14,1.14,0,0,0,0,1.69l.93.78a.74.74,0,0,1,.15,1.08l-1.68,2.06c-.27.32-.54.5-.91.23a3.88,3.88,0,0,1-.33-.23.61.61,0,0,1-.1-.82l.26-.57-.42-.32c-.2-.16-.46-.27-.62,0l-.47.85a1,1,0,0,0,.34,1.35c.32.26.65.5,1,.74a1.31,1.31,0,0,0,1.78-.15l2.54-3.18a1,1,0,0,0-.17-1.46l-1-.78a.55.55,0,0,1-.13-.84l.42-.56a.65.65,0,0,1,1-.2l.63.43a.56.56,0,0,1,.12.79c-.1.13-.2.27-.29.41Z" transform="translate(-38.17 -53.16)"/><path class="cls-6" d="M203.7,139.73l-1,1c-.39.38-.93-.17-.56-.63,1.35-1.62,2.69-3.24,4-4.85.5-.6,1.38.17.95.68-.16.18-.35.42-.51.61-.4.47.49,1,.76.68s.75-1,1.11-1.46a.75.75,0,0,0-.26-.93l-.85-.6a1.5,1.5,0,0,0-1.8.13c-1.64,1.82-3.14,3.71-4.63,5.6a1,1,0,0,0,0,1.36l.6.44a1.3,1.3,0,0,0,1.38-.05l1.17-1.11c.15-.17.22-.35,0-.48l-.49-.35Z" transform="translate(-38.17 -53.16)"/><polygon class="cls-6" points="171.81 83.34 172.55 84.04 165.87 90.64 165.16 90.03 171.81 83.34"/><path class="cls-6" d="M206.51,144.73l1.12-1.14a.28.28,0,0,1,.45,0c.2.21.4.41.59.62l.94-.76c-.19-.22-.38-.43-.56-.65a.36.36,0,0,1,0-.54l2.61-2.53c.21-.2.39-.13.57.05l1,1a.29.29,0,0,0,.42.06l.34-.29a.39.39,0,0,0,0-.57l-1.74-1.75a.48.48,0,0,0-.69,0l-6.34,6c-.26.24-.17.45,0,.66l1.27,1.35a.45.45,0,0,0,.64.07l.21-.16a.37.37,0,0,0,0-.59l-.85-.89Z" transform="translate(-38.17 -53.16)"/><path class="cls-6" d="M208.23,148.24q1.94-1.56,3.85-3.14L209.42,149c-.13.19-.24.48-.07.68l.17.18c.1.13.33.08.46,0l7.29-5.34c.21-.14.22-.24.1-.43s-.18-.26-.26-.4a.43.43,0,0,0-.61,0l-3.5,2.54,2.51-3.73c.12-.21.19-.4.05-.6s-.43-.51-.81-.2L208,147.11c-.17.14-.4.41-.23.62s.29.34.42.51Z" transform="translate(-38.17 -53.16)"/><path class="cls-6" d="M213.23,155.07c.36.62.71,1.24,1.06,1.86.25.43,1.23.06,1-.42s-.39-.76-.59-1.14a.34.34,0,0,1,.11-.49l1-.6a.38.38,0,0,1,.59.18c.12.22.23.44.34.67a.38.38,0,0,0,.57.21l.52-.27c.21-.11.36-.27.2-.51s-.37-.55-.56-.81.05-.51.31-.66l2.9-1.73c.17-.1.44-.19.56,0l.72,1.28c.11.2.23.38.49.24l.76-.4-1.47-2.42a.5.5,0,0,0-.74-.17l-7.54,4.38a.54.54,0,0,0-.21.77Z" transform="translate(-38.17 -53.16)"/><path class="cls-6" d="M217.43,149l.37.6c.17.3.42.22.65.06l1.14-.79a.93.93,0,0,0,.31-1.26l-.84-1.24a1.22,1.22,0,0,0-1.75-.32q-2.82,2-5.61,4a1.11,1.11,0,0,0-.48,1.56l.69,1c.4.6,1,.36,1.55.09l1-.52c.19-.1.31-.22.22-.4s-.1-.25-.16-.37a.32.32,0,0,0-.49-.15l-.83.45c-.66.37-1.2-.41-.61-.83l5.16-3.62c.73-.5,1.31.68.76,1l-1,.7Z" transform="translate(-38.17 -53.16)"/><path class="cls-6" d="M213.72,157.75l.65.11a1,1,0,0,0,.69-.09l.66-.32a.38.38,0,0,1,.54.15l.15.35c.1.22-.06.43-.27.56l-.45.26a.76.76,0,0,1-.64.07,6.54,6.54,0,0,1-1.33-1.09Z" transform="translate(-38.17 -53.16)"/><path class="cls-6" d="M115.85,155.43l-4-2.06c-.21-.14-.29-.25-.22-.49s.07-.24.11-.36c.09-.28.38-.33.65-.21l7.79,4.23c.51.44.13,1-.45.89-1.47-.25-2.93-.46-4.4-.65l4.11,1.86-.36.86-8-3.82c-.73-.35-.53-1.18.27-1l4.59.79Z" transform="translate(-38.17 -53.16)"/><path class="cls-6" d="M115.86,150.05l-.42-.2a.46.46,0,0,0-.65.2c-.21.33-.38.71,0,1l.73.48c.32.21.66,0,.85-.31l.45-.68a1,1,0,0,1,1.26-.17l3.76,2.5,0,.86-.92,1.2a.81.81,0,0,1-.95.37l-.82-.49c-.28-.14-.15-1,.56-.82l.34.18c.46.25,1-.47.48-.79l-2.69-1.79a.28.28,0,0,0-.38,0c-.53.78-1,1.68-2,1.13l-1.64-.93a1.16,1.16,0,0,1-.4-1.69l.66-1a.89.89,0,0,1,1.25-.33l1.05.72-.57.64Z" transform="translate(-38.17 -53.16)"/><path class="cls-6" d="M117.16,144.86l.34.22a.33.33,0,0,1,.12.43c-.23.32-.32.6,0,.84,2.09,1.57,4.19,3.15,6.29,4.71a.24.24,0,0,1,0,.31l-.21.33a.3.3,0,0,1-.43.13l-6.49-4.63c-.2-.12-.32-.1-.43.09s-.19.44-.51.32l-.39-.16c-.27-.1-.34-.3-.16-.57l1.26-1.88c.17-.19.34-.27.55-.14Z" transform="translate(-38.17 -53.16)"/><path class="cls-6" d="M121.31,140.15l.31.24a.32.32,0,0,1,.07.44c-.24.3-.56.59-.25.86l5.69,5.21c.29.26,0,.48-.15.71a.3.3,0,0,1-.43.08c-2-1.75-4-3.48-6-5.22a.43.43,0,0,0-.38-.06c-.21.19-.46.68-.77.52s-.87-.43-.45-.87l1.78-1.84c.19-.17.36-.23.56-.07Z" transform="translate(-38.17 -53.16)"/><path class="cls-6" d="M117.57,144l7.12,5.65a.49.49,0,0,0,.62-.77l-7.13-5.62-.61.74Z" transform="translate(-38.17 -53.16)"/><path class="cls-6" d="M128.61,133.52l.28.29a.34.34,0,0,1,0,.45c-.29.25-.71.58-.45.9q2.4,3,4.79,6c.25.31,0,.49-.25.68a.29.29,0,0,1-.43,0l-5.08-6a.43.43,0,0,0-.37-.11c-.24.15-.65.65-.93.45s-.78-.55-.3-.92l2.18-1.71c.21-.14.39-.17.56,0Z" transform="translate(-38.17 -53.16)"/><path class="cls-6" d="M129.4,132.48l3.39-2.37.58,1-1.8,1.1a.58.58,0,0,0-.18.93l2.11,2.91,1.6-1.13.55.82c.15.23.08.42-.15.6l-1.07.86c.27.4.52.8.79,1.2.12.18.3.17.49.05l1.8-1.15.31.44a.51.51,0,0,1-.14.67l-2.62,1.68-5.66-7.66Z" transform="translate(-38.17 -53.16)"/><path class="cls-6" d="M122.75,138.49l5.5,5.3c.18.17.49.39.79.17l.34-.34a.47.47,0,0,0,0-.72l-5.55-5.79.77-.79,5.85,6.26a.79.79,0,0,1,.07,1.17l-1.08,1.1a1.11,1.11,0,0,1-1.58-.12l-5.72-5.43c-.16-.16-.24-.33-.06-.48s.26-.21.38-.33.17-.16.33,0Z" transform="translate(-38.17 -53.16)"/><path class="cls-6" d="M109.3,157.46l8.74,3.9q.25-.47.48-.93l-8.27-3.76a.45.45,0,0,0-.64.15l-.31.64Z" transform="translate(-38.17 -53.16)"/><path class="cls-5" d="M140.29,225.18l-8,12.45c17.91,12.26,48.9,14.86,71.93-1l-8.78-12.23a51.32,51.32,0,0,1-55.14.74Z" transform="translate(-38.17 -53.16)"/><path class="cls-8" d="M187.83,151.75a36.88,36.88,0,0,1-20.47,67.82Z" transform="translate(-38.17 -53.16)"/><path class="cls-9" d="M168,219.56h-.61a36.88,36.88,0,0,1-21.81-66.92Z" transform="translate(-38.17 -53.16)"/><path class="cls-10" d="M167.36,145.69a37.38,37.38,0,0,1,19.45,5.42l-19.08,63.67-21-62.9a37.37,37.37,0,0,1,20.67-6.19Z" transform="translate(-38.17 -53.16)"/><polygon class="cls-4" points="130.96 108.35 140.37 115.17 134.84 119.1 128.68 114.43 126.77 113.05 130.96 108.35"/><path class="cls-3" d="M167.37,163.56l-.06.14,0,.46.24-.27Zm6.11.64-.32-.24-.34-.24L170.43,162l-.31-.23-.85-.61-.1-.08-.1-.07-.29.32h0l-.82.93-.15.16-.33.38-.09.1-.2.22-.22.25-.06.06-.4.46-.28.31-.25.28-.1.1-.18.21-.09.1-.2.22-.07.08-.69.78-.25.28,0,0,1.8,1.3.09.06.24.17.06,0,.06,0,.17.13,0,0,.3.23.07,0,.72.55,1.22.92,3.87,2.94,6.19-4.4Zm-5.94,3.44-.06,0-.21-.16-.1-.07,0,0-.06-.05-.07-.05-.18-.13-.08-.06h0l-.08-.06-.13-.09v0h0l-.46-.33-.11-.08-.42-.31.21-.23h0l.27-.3,0,0,.25-.28h0l0,0,.26-.29.28-.32,0,0,.11-.11.28-.31,0-.05.24-.27.18-.21.08-.09h0v0l.81-.89.58-.65.27.19.62.46,2.07,1.5.34.24.32.23,5.09,3.69L173,171.79l-5.16-3.91Zm-.17-4.08-.06.14,0,.46.24-.27Z" transform="translate(-38.17 -53.16)"/><polygon class="cls-4" points="128.89 96.55 124.81 103.2 128.67 112.55 132.78 103.23 128.89 96.55"/><path class="cls-3" d="M167.16,164l-.21.48.28-.31,0-.05,0-.46Zm3.92-8.17-.21-.37-.21-.36L167.07,149l-3.55,5.78-.23.38-.23.37-.51.83,1.78,4.31.16.39h0l.15.38,1.28,3.1.17.39.16.38,0,.12.39.94,0,.09.1.24.06-.14.21-.48h0l.48-1.07.2-.45.21-.48.61-1.38.5-1.12h0l.15-.36v0l.16-.36.17-.39,1.78-4Zm-2.19,4.25-.17.39-.77,1.75-.16.36-.21.46-.14.32h0l-.07.15-.06.14-.15.34-.21.48-.1.22v0l0-.05-.16-.38-.16-.39-1.28-3.1-.16-.39-.17-.39-1.49-3.61.08-.13.23-.37.23-.38,3.11-5.07,3.13,5.38.22.36.13.23-.32.72-1.14,2.59ZM167.16,164l-.21.48.28-.31,0-.05,0-.46Z" transform="translate(-38.17 -53.16)"/><polygon class="cls-4" points="129.44 107.1 134.12 100.26 137.34 109.25 128.76 114.87 129.44 107.1"/><path class="cls-3" d="M167.58,163.08l-.14.32h0l-.07.15.14.33.06.16.08.17,0-.41h0v-.12l0-.28,0-.34,0-.44Zm4.82-10.49-1.74,2.55-.24.35-.24.34-2,2.86L168,159l-.22.32-.54.79-.15,1.76-.08.82,0,.66,0,.16,0,.48-.06.62v.08l-.07.82h0l-.06.64v.37l0,.34V167l0,.21,0,.23v.18l0,.16v.1h0l0,.37v0l0,.28,0,.25.55-.36h0l.12-.09.19-.12.15-.1.18-.11.15-.11,4.94-3.24.34-.22.34-.22,2.48-1.63ZM167.77,167l-.39.26,0-.39h0l0-.15.07-.83,0-.2.06-.73.07-.76,0-.41h0v-.12l0-.28,0-.34,0-.44v-.2l.18-2,.3-.44.22-.32.23-.33,1.48-2.17.63-.92.24-.35,1.11-1.62,2.86,8-2.23,1.46-.33.22-.35.23Zm-.19-3.95-.14.32h0l-.07.15.14.33.06.16.08.17,0-.41h0v-.12l0-.28,0-.34,0-.44Z" transform="translate(-38.17 -53.16)"/><polygon class="cls-4" points="126.26 108.41 116.84 115.05 122.25 119.21 128.61 114.43 126.26 108.41"/><path class="cls-3" d="M167.13,167.43l0-.05,0-.1-.06-.15,0-.06-.07-.17-.09-.22-.09-.25,0-.1-.27-.68-.15-.38-.15-.39-.16-.4-1.23-3.16-.14-.35-.1.07-.05,0h0l-.91.65-2.45,1.73-.66.46-6,4.28,6,4.65,4.1-3.08,1.25-.94h0l.75-.56v0l.28-.2.12-.09.15-.12,0,0,.11-.08Zm-2.94-5.25.05,0,.19.48h0l1,2.47.16.41.15.38h0v0l.2.51.23.58,0,.07h0l.14.35-.11.08,0,0-.28.21-5.47,4.12-4.76-3.67,5.42-3.84.33-.24.33-.23,2.14-1.52Z" transform="translate(-38.17 -53.16)"/><polygon class="cls-4" points="127.51 106.38 123.74 99.41 120.48 109.04 128.33 114.58 129.76 111.73 127.51 106.38"/><path class="cls-3" d="M168.21,164.57l-.22-.52-.2-.47v0l-.07-.16-.09-.21,0-.11-.11-.28-.07-.15-.31-.76-.91-2.16-.14-.33,0-.05-.19-.36-1.88-3.47-.21-.38-.21-.39-1.69-3.12-3.63,10.72,2.22,1.57.34.24.32.23,4.81,3.39.16.11.17.12.13.1.18.12h0l.1.07.11-.22,0-.07v0l.16-.33,0-.09.1-.2,0,0,0,0,.28-.55.92-1.83Zm-6.79-.87-.34-.24-2-1.4,2.89-8.54,1.07,2,.21.39.21.38,1.8,3.32.06.12.11.26.16.39,1.29,3.07,0,.1.13.29.09.22.07.17,0,.07.1.25.15.35-.37.74-.36.71,0,.1h0l0,.11-.1.2-.07.13h0l-.14.28h0l-.21-.15-1.19-.84-.32-.22-2.9-2.05Z" transform="translate(-38.17 -53.16)"/><polygon class="cls-4" points="129.03 104.87 125.75 108.5 128.86 114.45 131.99 108.53 129.03 104.87"/><path class="cls-3" d="M166.43,165.65l-.13-.24-.05-.11-.19-.35-.19-.37-1.05-2,.87,2.22.16.4.15.39.07.2v0l0,0,.48.9.1-.2v-.37Zm3.17-5.25-.27-.34-.26-.33-.34-.42-.26-.31-.24-.31-1-1.25-1.4,1.55-.28.31-.26.29-.39.42-.28.31-.28.32-.87,1,.07.13.18.35.17.32,1.45,2.79.19.36h0l.19.34h0v0l.31.59.34.64.06.11h0l0,.08.11.21h0l0,.1,0,0,.14.27,0,0,.09.17.12.22h0v0l.07-.12.13-.24.05-.1.1-.2,0-.08,0-.06.29-.56,2.3-4.36.18-.35.18-.33.18-.34Zm0,1.47-.18.34-1.24,2.36-.71,1.34-.46.87v0l0-.06-.11-.2-.11-.21-.07-.15-.28-.53-.13-.24-.05-.11-.19-.35-.19-.37-1.05-2v0l-.43-.83.08-.08.19-.22.09-.1.2-.22.28-.31.39-.43.28-.31.29-.32,1-1.12.59.73.5.62.44.55.27.33.18.23.09.11.44.55Zm-3.2,3.78-.13-.24-.05-.11-.19-.35-.19-.37-1.05-2,.87,2.22.16.4.15.39.07.2v0l0,0,.48.9.1-.2v-.37Z" transform="translate(-38.17 -53.16)"/><rect class="cls-11" x="128.01" y="125.31" width="1.83" height="23.79"/><path class="cls-3" d="M165.8,178.1v24.54h2.59V178.1Zm1.83,23.79h-1.07v-23h1.07Z" transform="translate(-38.17 -53.16)"/><polygon class="cls-4" points="128.89 126.89 124.54 119.44 128.67 114.35 132.72 119.49 128.89 126.89"/><path class="cls-3" d="M169.13,169.79l-.92-1.17h0l-.49-.62-.24-.3,0,0-.17-.22-.08-.1,0,0-.14-.18,0,0-.1-.11,0-.06-.11.14h0l-.11.13-.12.15,0,0-.18.22,0,0-.21.26-.52.64h0l-1,1.23-2.28,2.8,3.56,6.07.38.65.38.65.53.9.54-1.05.38-.73.38-.74,3-5.72Zm-1.68,8.68-.2.38-.21.41-.24-.41-.22-.38-.22-.37-3.19-5.46,3.33-4.1.34-.42.07.09.14.18,0,0,3.37,4.28-2.8,5.41Z" transform="translate(-38.17 -53.16)"/><path class="cls-6" d="M140.76,126.3l3.88,8.13.67-.2c0-.18.08-.37.13-.55-.28-.59-.57-1.16-.85-1.75l-.06-.12c-.22-.44.19-.67.57-.81s.45-.22.34-.51l-.21-.49c-.11-.23-.26-.12-.42,0-.42.22-1,.51-1.22-.08-.46-1-.93-2-1.38-3.07-.12-.27-.13-.58.2-.72l.82-.35c.23-.1.43-.24.33-.49s-.17-.47-.25-.69l-2.16.87c-.46.19-.59.45-.39.86Z" transform="translate(-38.17 -53.16)"/><path class="cls-6" d="M142.87,133.65c-.92-2.05-1.9-4.08-2.93-6.12a1,1,0,0,0-1.48-.5l-1,.46c-.79.35-.76,1.36-.45,2q1.53,2.72,3.08,5.43a1.32,1.32,0,0,0,1.37.58,4,4,0,0,0,1.13-.59A1.05,1.05,0,0,0,142.87,133.65Zm-2,.6-2.77-5.05c-.39-.71.41-1.62,1-.89l2.7,5.49C142.15,134.57,141.32,135,140.9,134.25Z" transform="translate(-38.17 -53.16)"/><path class="cls-6" d="M150.17,122.68c.05.12.1.24.14.36a.32.32,0,0,1-.16.41c-.37.14-.88.29-.76.66.72,2.37,1.43,4.73,2.15,7.09.12.37-.21.43-.49.54a.29.29,0,0,1-.41-.14l-2.4-7.23a.41.41,0,0,0-.3-.23c-.28.06-.84.37-1,.09s-.51-.77.07-.94l2.68-.8c.26-.07.44,0,.52.19Z" transform="translate(-38.17 -53.16)"/><path class="cls-6" d="M151.06,122.13l2.48-.51.25-.05a.51.51,0,1,1,.11,1l-.75.13c-.5.09-.62.38-.52.78l.82,3.38a4.48,4.48,0,0,1,1.26-.15.66.66,0,0,1,.13,1.11c-.36.18-1,.11-.94.61s.15.79.23,1.17c0,.2.21.26.42.22l1.38-.27.12.51c.06.27-.15.46-.4.56l-2.33.45c-.75-3-1.5-6-2.26-9Z" transform="translate(-38.17 -53.16)"/><path class="cls-6" d="M164.83,129c-.08-2.84-.16-5.79-.24-8.62.4-.09.93-.1,1.07.33.36,1.12.73,2.23,1.1,3.35v-3.28c0-.23,0-.32.25-.44h.4c.29,0,.35,0,.35.28,0,2.88,0,5.76,0,8.64h-.59c-.36,0-.46-.7-.47-1-.28-1-.57-2.09-.85-3.14l.18,3.7c0,.19-.11.49-.36.49h-.47c-.34,0-.3-.08-.32-.36Z" transform="translate(-38.17 -53.16)"/><path class="cls-6" d="M161.13,120.42c.19,1.64.39,3.28.59,4.93.06.21.25.24.43.23s.38-.07.39-.24c-.06-1.58-.13-3.15-.19-4.73,0-.45,1-.49,1,0,.18,2.75.34,5.57.52,8.32,0,.59-.83.82-.88.22l-.23-2.52-1.08,0c.06.69.11,1.75.17,2.43a.45.45,0,1,1-.88.12l-1-8.34c0-.31.12-.47.44-.46Z" transform="translate(-38.17 -53.16)"/><path class="cls-6" d="M180.36,121.78l-1.09-.22c-.85-.17-1.46.65-1.64,1.35l-1,6.09a1.25,1.25,0,0,0,.72,1.25,4.19,4.19,0,0,0,1.27.18,1.12,1.12,0,0,0,1-.85c.55-2.15,1.06-4.34,1.52-6.55A.93.93,0,0,0,180.36,121.78Zm-1.62,7c-.18.84-1.13.71-1-.14.32-1.87.7-3.49,1-5.37.14-.78,1.3-1,1.26-.16C179.61,125.12,179.17,126.85,178.74,128.82Z" transform="translate(-38.17 -53.16)"/><path class="cls-6" d="M171.53,120.49l-1.11-.08c-.87-.06-1.36.82-1.43,1.54-.05,2-.09,4.09-.12,6.14a1.27,1.27,0,0,0,.9,1.16,3.88,3.88,0,0,0,1.28,0,1.09,1.09,0,0,0,.91-1c.25-2.2.45-4.42.6-6.68C172.6,120.86,172.23,120.55,171.53,120.49Zm-.63,7.18c-.06.85-1,.84-1,0,.06-1.89.21-3.55.27-5.44,0-.8,1.14-1.2,1.23-.32C171.25,123.9,171.06,125.67,170.9,127.67Z" transform="translate(-38.17 -53.16)"/><path class="cls-6" d="M174.8,120.94q-.42,4-.83,7.93c.33.06.85.12,1.19.17.56.1.39,1-.18.93l-1.22-.05c-1-.06-1-.25-.91-1.12.19-2.72.51-5.38.91-8,0-.18,0-.17.19-.15l.68.07c.22,0,.19,0,.17.22Z" transform="translate(-38.17 -53.16)"/><path class="cls-6" d="M187.84,123.85l-1.58,4.53a2,2,0,0,0,.29,1.59l-1,2.62.86.29,1.05-2.16c.12-.27.39-.34.72-.32a.72.72,0,0,0,.74-.47l2.24-5.07c.15-.35-.18-.35-.5-.5s-.48.15-.58.38c-.58,1.31-1.19,2.61-1.73,3.93-.26.61-1.22.52-1-.21.51-1.47,1.05-2.93,1.59-4.39.15-.56-1-.71-1.16-.22Z" transform="translate(-38.17 -53.16)"/><path class="cls-6" d="M186,125.42c.17-.47.34-.93.52-1.4a1,1,0,0,0-.62-1.07l-1-.44a1.7,1.7,0,0,0-2.25.76l-1.74,6.13c-.17.6-.11,1.52.63,1.78l1.72.62c.38.13.58-.15.68-.44.33-.87.66-1.73,1-2.59a.6.6,0,0,0-.48-.9l-.55-.13c-.5-.12-.62-.12-.81.32s-.07.55.25.7.2.27.13.46l-.33.84c-.35.9-1.34.15-1.11-.65.48-1.72.94-3.43,1.42-5.14a1,1,0,0,1,1.29-.69c.4.2.68.35.44.84a.75.75,0,0,0-.08.71l.92.29Z" transform="translate(-38.17 -53.16)"/><path class="cls-6" d="M159.1,123.13c0-.45,0-.91-.1-1.36-.19-1.37-3.8-1-3.33,1.07s.85,4.2,1.28,6.31a1,1,0,0,0,1.06.76c.89,0,1.9-.22,1.86-1.26,0-.45,0-.85-.07-1.3s-1.22-.47-1.21.05c0,.28,0,.51.06.79.06.79-.63.95-.78.16-.37-1.9-.75-3.8-1.12-5.7-.16-.81.85-1,1.08-.19l.21.72c.09.3.17.33.36.33.34,0,.72.09.7-.38Z" transform="translate(-38.17 -53.16)"/><path class="cls-6" d="M196.56,127.45a2.28,2.28,0,0,0-2-1.18c-1.12,0-1.58,1.91-1.57,2.79a2.44,2.44,0,0,0-.7.66c-.53,1.14-1.06,2.28-1.6,3.42a1.05,1.05,0,0,0,.15,1.32,9.15,9.15,0,0,0,1.07.73,1.08,1.08,0,0,0,.88.11l.61-.25c.16.51,0,.87.21,1.14a.75.75,0,0,0,.31.26c.48.25.45-.1.43-.5,0-.73-.06-1.46-.08-2.18l1.12-1.07c-.11-.17-.22-.33-.32-.5a.21.21,0,0,0-.35,0c-.53.34-.47-.08-.47-.44s0-1,0-1.45a3,3,0,0,0,2.25-1.55A1.72,1.72,0,0,0,196.56,127.45Zm-4,6.71c-.74.29-.85-.41-.64-.89.34-.76,1.18-2.71,1.21-2s.08,1.7.11,2.48A2.58,2.58,0,0,1,192.53,134.16Zm2.49-5.27c-1.55,1-1-2.13.18-1.41C195.78,127.77,195.49,128.59,195,128.89Z" transform="translate(-38.17 -53.16)"/><path class="cls-6" d="M154.37,236.08c-2-.51-4-1.09-5.93-1.77a66.79,66.79,0,0,1-7.77-3.49l-.39.54a56.21,56.21,0,0,0,5.33,2.57c0,.18,0,.38,0,.57l-.23.37-.35.06-2.49-.92c-1.06-.4-2.14.1-1.57,1.22a5.75,5.75,0,0,0,.61,1c.69.83-.16,1.48-.76,1.08a.72.72,0,0,1-.32-.46,2.82,2.82,0,0,0-1-1.66c-.58-.42-1.51-.39-1.72.33-.37,1.29,1,2.39,2.08,2.75L141,240.8l.65-.36c-.24-.48-.47-.95-.72-1.43s0-.89.37-.9a3.37,3.37,0,0,0,.55,0c1.23-.19,1.34-1.58.08-2.77v-.62h.47l1.66.69c.29.16.91.34.63,1-.52,1.25-1,2.34-1.52,3.57.33.16.65.32,1,.47.79-1.86,1.57-3.73,2.36-5.6,0-.06.05-.11.07-.18.15-.3,1-.09,1,.34q-1.1,2.94-2.21,5.89l.9.43,2.2-5.75c.05-.35.19-.37.47-.29l3.31,1c.3.07.55.19.43.6s-.22.83-.34,1.25-.21.51-.66.44c-.7-.22-1.45-.51-2.15-.66s-1,.46-1.18,1.31a.77.77,0,0,0,1.35.6,1.66,1.66,0,0,0,.41-.8c.43.09.87.17,1.3.28s.54.27.42.75c-.18.68-.49,1.6-.67,2.28l.91.32c.45-1.66,1.05-3.76,1.5-5.42.12-.63.44-.42.8-.37l.35-.68Zm-14.61.92c0,.22-.07.33-.36.18C137.57,235.81,139.31,234.8,139.76,237Z" transform="translate(-38.17 -53.16)"/><path class="cls-3" d="M139.83,237c-.18-.93-.62-1.35-1-1.35a.36.36,0,0,0-.34.24c-.09.29.07.8.84,1.37a.63.63,0,0,0,.26.08.27.27,0,0,0,.16-.07A.34.34,0,0,0,139.83,237Zm-.16.17s0,.05-.22,0c-.65-.48-.86-1-.77-1.19a.2.2,0,0,1,.19-.14c.27,0,.65.38.82,1.22A.3.3,0,0,1,139.67,237.16Zm.16-.17c-.18-.93-.62-1.35-1-1.35a.36.36,0,0,0-.34.24c-.09.29.07.8.84,1.37a.63.63,0,0,0,.26.08.27.27,0,0,0,.16-.07A.34.34,0,0,0,139.83,237Zm-.16.17s0,.05-.22,0c-.65-.48-.86-1-.77-1.19a.2.2,0,0,1,.19-.14c.27,0,.65.38.82,1.22A.3.3,0,0,1,139.67,237.16ZM154.39,236c-2.3-.59-4.18-1.15-5.93-1.78a63.34,63.34,0,0,1-7.75-3.48l-.06,0-.48.66.08,0a57,57,0,0,0,5.29,2.55l0,.49-.2.34-.29.05-2.47-.92a2,2,0,0,0-.75-.14,1.09,1.09,0,0,0-1,.44,1,1,0,0,0,.05,1,5,5,0,0,0,.63,1,.73.73,0,0,1,.19.77.59.59,0,0,1-.85.21.68.68,0,0,1-.3-.42,2.82,2.82,0,0,0-1.05-1.7,1.57,1.57,0,0,0-.88-.29.92.92,0,0,0-1,.66c-.38,1.32,1,2.45,2.1,2.84l1.15,2.6.79-.44L141,239c-.08-.33-.08-.57,0-.69a.37.37,0,0,1,.3-.12l.17,0a1.59,1.59,0,0,0,.37,0,1.11,1.11,0,0,0,1-.76,2.25,2.25,0,0,0-.83-2.12v-.51h.37l1.64.69.12.06c.31.14.7.33.49.84s-.51,1.2-.76,1.78-.51,1.17-.77,1.8l0,.06,1.13.53,2.46-5.84c0-.07.12-.1.25-.1s.6.15.61.37l-2.24,5.95,1,.5,2.24-5.84c0-.26.11-.26.17-.26l.2,0,3.31,1a.59.59,0,0,1,.37.21.36.36,0,0,1,0,.31l-.34,1.25c-.08.3-.16.41-.4.41l-.16,0-.62-.2a13,13,0,0,0-1.55-.46.86.86,0,0,0-.27,0c-.63,0-.78.6-1,1.29l0,.11a.79.79,0,0,0,.17.66.93.93,0,0,0,1.3,0,1.6,1.6,0,0,0,.41-.76l.37.07.86.19a.58.58,0,0,1,.37.2.68.68,0,0,1,0,.47c-.09.35-.22.78-.35,1.19s-.23.76-.31,1.08l0,.06,1.06.38,0-.08c.22-.83.48-1.77.74-2.71s.53-1.88.75-2.71c.07-.35.18-.39.3-.39a1.29,1.29,0,0,1,.25,0l.17,0h.06l.41-.81Zm-.14.78a1,1,0,0,0-.28,0c-.24,0-.38.16-.45.5-.22.84-.48,1.77-.74,2.71s-.51,1.82-.73,2.63l-.77-.27c.08-.31.19-.65.3-1s.26-.85.35-1.2a.76.76,0,0,0,0-.59.64.64,0,0,0-.45-.27l-.87-.18-.44-.09h-.07l0,.06a1.45,1.45,0,0,1-.39.77.76.76,0,0,1-1.07,0,.66.66,0,0,1-.15-.53l0-.1c.2-.78.36-1.31,1.06-1.16.49.11,1,.29,1.53.46l.64.21c.54.08.64-.17.73-.5l.35-1.25a.62.62,0,0,0,0-.43.8.8,0,0,0-.46-.27l-3.32-1a1.13,1.13,0,0,0-.24-.05c-.25,0-.3.22-.32.38l-2.17,5.68-.77-.37,2.2-5.85c0-.36-.45-.56-.76-.56a.43.43,0,0,0-.39.19l-2.4,5.71-.85-.4c.25-.6.49-1.17.74-1.73s.49-1.16.76-1.77-.25-.9-.56-1.05l-.12-.06-1.66-.69h-.57v.72l0,0a2.1,2.1,0,0,1,.82,2,1,1,0,0,1-.86.66,1.82,1.82,0,0,1-.33,0h-.21a.45.45,0,0,0-.39.17c-.13.16-.14.43,0,.84l.68,1.36-.52.29-1.11-2.52h0c-1.07-.36-2.4-1.43-2-2.67a.77.77,0,0,1,.81-.55,1.41,1.41,0,0,1,.79.26,2.72,2.72,0,0,1,1,1.61.92.92,0,0,0,.36.52.77.77,0,0,0,1.08-.27.91.91,0,0,0-.22-.93,5.3,5.3,0,0,1-.6-1,.86.86,0,0,1-.06-.88,1,1,0,0,1,.84-.36,1.87,1.87,0,0,1,.69.13l2.51.93.41-.07.25-.43,0-.63,0,0a57.14,57.14,0,0,1-5.24-2.52l.29-.42a70.32,70.32,0,0,0,7.72,3.46c1.75.62,3.64,1.18,5.93,1.77l.3.1-.28.56Zm-15.38-1.15a.36.36,0,0,0-.34.24c-.09.29.07.8.84,1.37a.63.63,0,0,0,.26.08.27.27,0,0,0,.16-.07.34.34,0,0,0,0-.27C139.65,236.06,139.21,235.64,138.87,235.64Zm.8,1.52s0,.05-.22,0c-.65-.48-.86-1-.77-1.19a.2.2,0,0,1,.19-.14c.27,0,.65.38.82,1.22A.3.3,0,0,1,139.67,237.16Zm.16-.17c-.18-.93-.62-1.35-1-1.35a.36.36,0,0,0-.34.24c-.09.29.07.8.84,1.37a.63.63,0,0,0,.26.08.27.27,0,0,0,.16-.07A.34.34,0,0,0,139.83,237Zm-.16.17s0,.05-.22,0c-.65-.48-.86-1-.77-1.19a.2.2,0,0,1,.19-.14c.27,0,.65.38.82,1.22A.3.3,0,0,1,139.67,237.16Zm.16-.17c-.18-.93-.62-1.35-1-1.35a.36.36,0,0,0-.34.24c-.09.29.07.8.84,1.37a.63.63,0,0,0,.26.08.27.27,0,0,0,.16-.07A.34.34,0,0,0,139.83,237Zm-.16.17s0,.05-.22,0c-.65-.48-.86-1-.77-1.19a.2.2,0,0,1,.19-.14c.27,0,.65.38.82,1.22A.3.3,0,0,1,139.67,237.16Z" transform="translate(-38.17 -53.16)"/><path class="cls-6" d="M194.64,231.67l.89-.59-.46-.84c-.38.24-.76.46-1.17.69a51.06,51.06,0,0,1-18.54,6.19v1.08s5-.86,5-.89a11.3,11.3,0,0,1,.21,1.42l-3,.71a1.39,1.39,0,0,0-1.24,1.54c.08.74.47,1.64,1.26,1.59a16.31,16.31,0,0,0,3.36-.58c.26-.07.55-.14.61.23s.2.72.29,1.09l.91-.31c-.5-2-1-3.91-1.49-5.87l5.26-1.6.48,1.66c.05.3-.16.61-.65.89a2.38,2.38,0,0,0-3.09,2.1c-.17,1.74,1.22,2.19,2.61,2.35.54.07.62-.48.16-.73-.15-.08-.34-.08-.51-.15-.87-.37-1.48-1-1-2,.17-.36.63-.84,1.08-.74s.33.2.32.45c0,.65.55.65.89.14.88-1.29,2.32-1.92,2.79-1.39s-.33,2.22-.6,2.76l.62.39c1-1.51,2.31-5-1.47-4.39l-.54-1.26c-.19-.47.09-.65.53-.84.73-.3,1.47-.6,2.19-.91.31-.12.61-.28.78.13l.54,1.25c.11.28.26.54-.07.75a.66.66,0,0,0-.36.55,2,2,0,0,0,.47,1.16c.53.65,1.92.44,1.77-.57-.09-.24-.19-.48-.28-.73l2.23-1.21c.47.84.93,1.69,1.4,2.54l.83-.49Zm-16.45,8.56c.05,0,1,1.29,1,1.29-.45.13-1.55.45-1.8-.12S177.29,240.29,178.19,240.23Zm.57-.21a13.13,13.13,0,0,0,1.84-.32.52.52,0,0,1,.45.32,1.94,1.94,0,0,0,.1.71.9.9,0,0,1-.13.31l-1.29.36Zm15.84-5.5c-.44.19-1.45.7-1.89.9-.32-.59-.58-1.2-.9-1.79-.11-.32,0-.54.26-.66s1-.5,1.26-.6c.43-.18.66.08.83.42l.62,1.2A.52.52,0,0,1,194.6,234.52Z" transform="translate(-38.17 -53.16)"/><path class="cls-3" d="M179.23,241.47a9.66,9.66,0,0,0-1-1.31h0a1.1,1.1,0,0,0-.91.4,1,1,0,0,0,0,.88c.1.25.35.37.74.37a4.65,4.65,0,0,0,1.15-.21l.09,0Zm-1.18.18c-.32,0-.53-.09-.61-.28a.84.84,0,0,1-.05-.75c.11-.18.37-.28.77-.31.11.11.57.73.89,1.17A4.08,4.08,0,0,1,178.05,241.65Zm3.08-1.62v0a.55.55,0,0,0-.5-.36h0a15.14,15.14,0,0,1-1.83.32h-.13l.07.1c.16.23.32.47.49.7l.48.68,0,0,1.34-.37,0,0a.7.7,0,0,0,.14-.38A1.72,1.72,0,0,1,181.13,240Zm-1.38,1.28-.44-.64-.42-.59a12.67,12.67,0,0,0,1.73-.31.45.45,0,0,1,.36.27,1.93,1.93,0,0,0,.09.68.68.68,0,0,1-.09.25Zm14.78-8-.3-.6a.77.77,0,0,0-.64-.51.65.65,0,0,0-.29.07c-.11,0-.37.17-.64.3l-.62.29c-.33.14-.43.38-.29.77s.3.59.44.89.29.6.45.89l0,.06.07,0,.94-.45,1-.46a.62.62,0,0,0,.2-.61C194.73,233.76,194.63,233.55,194.53,233.35Zm-.92,1.55-.87.42c-.15-.27-.28-.55-.41-.83s-.29-.6-.45-.88,0-.47.22-.58.37-.17.63-.29l.63-.3a.68.68,0,0,1,.23-.05c.2,0,.36.13.51.43l.3.59c.1.21.2.41.31.6a.43.43,0,0,1-.14.44C194.35,234.54,194,234.73,193.61,234.9Zm.92-1.55-.3-.6a.77.77,0,0,0-.64-.51.65.65,0,0,0-.29.07c-.11,0-.37.17-.64.3l-.62.29c-.33.14-.43.38-.29.77s.3.59.44.89.29.6.45.89l0,.06.07,0,.94-.45,1-.46a.62.62,0,0,0,.2-.61C194.73,233.76,194.63,233.55,194.53,233.35Zm-.92,1.55-.87.42c-.15-.27-.28-.55-.41-.83s-.29-.6-.45-.88,0-.47.22-.58.37-.17.63-.29l.63-.3a.68.68,0,0,1,.23-.05c.2,0,.36.13.51.43l.3.59c.1.21.2.41.31.6a.43.43,0,0,1-.14.44C194.35,234.54,194,234.73,193.61,234.9ZM181.13,240v0a.55.55,0,0,0-.5-.36h0a15.14,15.14,0,0,1-1.83.32h-.13l.07.1c.16.23.32.47.49.7l.48.68,0,0,1.34-.37,0,0a.7.7,0,0,0,.14-.38,1.72,1.72,0,0,1-.09-.67Zm-1.38,1.3-.44-.64-.42-.59a12.67,12.67,0,0,0,1.73-.31.45.45,0,0,1,.36.27,1.93,1.93,0,0,0,.09.68.68.68,0,0,1-.09.25Zm-1.53-1.15h0a1.1,1.1,0,0,0-.91.4,1,1,0,0,0,0,.88c.1.25.35.37.74.37a4.65,4.65,0,0,0,1.15-.21l.09,0-.06-.09A9.66,9.66,0,0,0,178.22,240.16Zm-.17,1.49c-.32,0-.53-.09-.61-.28a.84.84,0,0,1-.05-.75c.11-.18.37-.28.77-.31.11.11.57.73.89,1.17A4.08,4.08,0,0,1,178.05,241.65Zm16.69-10,.89-.59-.53-1-.07,0c-.34.22-.71.43-1.17.69a50.79,50.79,0,0,1-18.51,6.19h-.06v1.23l.09,0c3.54-.61,4.59-.8,4.91-.88.09.46.15.88.19,1.28l-3,.69a1.46,1.46,0,0,0-1.3,1.62c.09.86.53,1.71,1.34,1.66a15.67,15.67,0,0,0,3.37-.58.94.94,0,0,1,.28-.06c.11,0,.21,0,.24.24l.31,1.16,1.05-.36-1.49-5.86,5.12-1.56.45,1.58c.06.34-.27.61-.58.79a2.8,2.8,0,0,0-.7-.09,2.45,2.45,0,0,0-2.46,2.27c-.17,1.88,1.45,2.29,2.68,2.44.29,0,.49-.09.53-.29a.53.53,0,0,0-.32-.58,1,1,0,0,0-.3-.1l-.22-.06a1.83,1.83,0,0,1-1.06-.89,1.39,1.39,0,0,1,.06-1.05c.14-.32.6-.78,1-.69s.28.14.27.37a.62.62,0,0,0,.14.46c.22.22.63.09.89-.28A3.23,3.23,0,0,1,189,238a.57.57,0,0,1,.44.17c.47.53-.3,2-.59,2.61l-.06.13.75.46,0-.06c.56-.86,1.46-2.77.87-3.83-.35-.64-1.14-.87-2.36-.68l-.51-1.21a.49.49,0,0,1,0-.37c.06-.15.25-.26.52-.36l2.26-.95a1.09,1.09,0,0,1,.36-.1c.08,0,.17,0,.26.21l.56,1.32c.11.27.17.45-.07.59a.73.73,0,0,0-.39.61,2,2,0,0,0,.48,1.22,1.17,1.17,0,0,0,.91.39,1,1,0,0,0,.81-.33.81.81,0,0,0,.17-.71l-.24-.66,2.1-1.16,1.4,2.55,1-.56Zm-1.43,5.41a.68.68,0,0,1-.14.58,1,1,0,0,1-.7.28,1,1,0,0,1-.79-.34,2,2,0,0,1-.46-1.12.61.61,0,0,1,.32-.49c.37-.22.24-.53.12-.78l-.55-1.31a.41.41,0,0,0-.39-.31,1.17,1.17,0,0,0-.42.12l-2.26.94a1,1,0,0,0-.6.44.55.55,0,0,0,0,.48l.55,1.32h.06c1.17-.19,1.94,0,2.26.6.54,1-.28,2.76-.82,3.62l-.5-.32c.33-.65,1.1-2.17.55-2.78a.69.69,0,0,0-.54-.22,3.4,3.4,0,0,0-2.36,1.62c-.2.29-.5.42-.65.26a.45.45,0,0,1-.1-.35c0-.26,0-.44-.38-.53l-.15,0a1.29,1.29,0,0,0-1,.8,1.53,1.53,0,0,0-.07,1.16,2,2,0,0,0,1.15,1l.24.07a1.12,1.12,0,0,1,.26.08.4.4,0,0,1,.25.41c0,.13-.18.21-.37.18-1.27-.15-2.71-.55-2.55-2.28a2.29,2.29,0,0,1,2.31-2.13,2.78,2.78,0,0,1,.69.09h.06c.64-.37.73-.73.68-1l-.5-1.73-5.39,1.64,1.47,5.87-.75.26-.27-1a.37.37,0,0,0-.39-.35,1.2,1.2,0,0,0-.32.06,15.38,15.38,0,0,1-3.34.57c-.7,0-1.1-.74-1.18-1.52a1.32,1.32,0,0,1,1.18-1.46l3.09-.73v-.06c0-.44-.11-.9-.21-1.43h-.08l0-.06c-.13,0-3,.54-4.88.87v-.92a50.9,50.9,0,0,0,18.49-6.2c.44-.24.79-.44,1.12-.65l.38.71-.88.59,2.92,5.53-.71.42L195.37,235,193,236.33Zm.92-4.35a.77.77,0,0,0-.64-.51.65.65,0,0,0-.29.07c-.11,0-.37.17-.64.3l-.62.29c-.33.14-.43.38-.29.77s.3.59.44.89.29.6.45.89l0,.06.07,0,.94-.45,1-.46a.62.62,0,0,0,.2-.61c-.12-.2-.22-.41-.32-.61Zm-.62,2.15-.87.42c-.15-.27-.28-.55-.41-.83s-.29-.6-.45-.88,0-.47.22-.58.37-.17.63-.29l.63-.3a.68.68,0,0,1,.23-.05c.2,0,.36.13.51.43l.3.59c.1.21.2.41.31.6a.43.43,0,0,1-.14.44C194.35,234.54,194,234.73,193.61,234.9ZM181.13,240v0a.55.55,0,0,0-.5-.36h0a15.14,15.14,0,0,1-1.83.32h-.13l.07.1c.16.23.32.47.49.7l.48.68,0,0,1.34-.37,0,0a.7.7,0,0,0,.14-.38,1.72,1.72,0,0,1-.09-.67Zm-1.38,1.3-.44-.64-.42-.59a12.67,12.67,0,0,0,1.73-.31.45.45,0,0,1,.36.27,1.93,1.93,0,0,0,.09.68.68.68,0,0,1-.09.25Zm-1.53-1.15h0a1.1,1.1,0,0,0-.91.4,1,1,0,0,0,0,.88c.1.25.35.37.74.37a4.65,4.65,0,0,0,1.15-.21l.09,0-.06-.09A9.66,9.66,0,0,0,178.22,240.16Zm-.17,1.49c-.32,0-.53-.09-.61-.28a.84.84,0,0,1-.05-.75c.11-.18.37-.28.77-.31.11.11.57.73.89,1.17A4.08,4.08,0,0,1,178.05,241.65Zm1.18-.18a9.66,9.66,0,0,0-1-1.31h0a1.1,1.1,0,0,0-.91.4,1,1,0,0,0,0,.88c.1.25.35.37.74.37a4.65,4.65,0,0,0,1.15-.21l.09,0Zm-1.18.18c-.32,0-.53-.09-.61-.28a.84.84,0,0,1-.05-.75c.11-.18.37-.28.77-.31.11.11.57.73.89,1.17A4.08,4.08,0,0,1,178.05,241.65Zm3.08-1.62v0a.55.55,0,0,0-.5-.36h0a15.14,15.14,0,0,1-1.83.32h-.13l.07.1c.16.23.32.47.49.7l.48.68,0,0,1.34-.37,0,0a.7.7,0,0,0,.14-.38A1.72,1.72,0,0,1,181.13,240Zm-1.38,1.28-.44-.64-.42-.59a12.67,12.67,0,0,0,1.73-.31.45.45,0,0,1,.36.27,1.93,1.93,0,0,0,.09.68.68.68,0,0,1-.09.25Zm14.78-8-.3-.6a.77.77,0,0,0-.64-.51.65.65,0,0,0-.29.07c-.11,0-.37.17-.64.3l-.62.29c-.33.14-.43.38-.29.77s.3.59.44.89.29.6.45.89l0,.06.07,0,.94-.45,1-.46a.62.62,0,0,0,.2-.61C194.73,233.76,194.63,233.55,194.53,233.35Zm-.92,1.55-.87.42c-.15-.27-.28-.55-.41-.83s-.29-.6-.45-.88,0-.47.22-.58.37-.17.63-.29l.63-.3a.68.68,0,0,1,.23-.05c.2,0,.36.13.51.43l.3.59c.1.21.2.41.31.6a.43.43,0,0,1-.14.44C194.35,234.54,194,234.73,193.61,234.9Zm-14.38,6.57a9.66,9.66,0,0,0-1-1.31h0a1.1,1.1,0,0,0-.91.4,1,1,0,0,0,0,.88c.1.25.35.37.74.37a4.65,4.65,0,0,0,1.15-.21l.09,0Zm-1.18.18c-.32,0-.53-.09-.61-.28a.84.84,0,0,1-.05-.75c.11-.18.37-.28.77-.31.11.11.57.73.89,1.17A4.08,4.08,0,0,1,178.05,241.65Zm3.08-1.62v0a.55.55,0,0,0-.5-.36h0a15.14,15.14,0,0,1-1.83.32h-.13l.07.1c.16.23.32.47.49.7l.48.68,0,0,1.34-.37,0,0a.7.7,0,0,0,.14-.38A1.72,1.72,0,0,1,181.13,240Zm-1.38,1.28-.44-.64-.42-.59a12.67,12.67,0,0,0,1.73-.31.45.45,0,0,1,.36.27,1.93,1.93,0,0,0,.09.68.68.68,0,0,1-.09.25Zm14.78-8-.3-.6a.77.77,0,0,0-.64-.51.65.65,0,0,0-.29.07c-.11,0-.37.17-.64.3l-.62.29c-.33.14-.43.38-.29.77s.3.59.44.89.29.6.45.89l0,.06.07,0,.94-.45,1-.46a.62.62,0,0,0,.2-.61C194.73,233.76,194.63,233.55,194.53,233.35Zm-.92,1.55-.87.42c-.15-.27-.28-.55-.41-.83s-.29-.6-.45-.88,0-.47.22-.58.37-.17.63-.29l.63-.3a.68.68,0,0,1,.23-.05c.2,0,.36.13.51.43l.3.59c.1.21.2.41.31.6a.43.43,0,0,1-.14.44C194.35,234.54,194,234.73,193.61,234.9Z" transform="translate(-38.17 -53.16)"/><path class="cls-6" d="M172.52,238.2h.88l-.06-.94c-.74.06-1.46.11-2.2.19a42.67,42.67,0,0,1-11.2-.3c-1.15-.2-2.29-.44-3.46-.59l0,.92a2.77,2.77,0,0,1,1,.17c-.2,1-.31,1.91-.5,2.87a1.6,1.6,0,0,0,.93,1.8,4.15,4.15,0,0,0,1.65.26s-.07,1.15-.1,1.56l.93.05c.2-1.57.4-3.91.6-5.48l0-.19c0-.44.09-.41.37-.39.65.07,1.4.12,2.06.15l.28.18-.19.41c.1.08.33.3.4.36.64.55,1.08,1.1,1,1.66a1,1,0,0,1-.91.75c-.55,0-1.06-1.06-1.34-1.45l-.86.51a12.56,12.56,0,0,0,3.51,4.5,2,2,0,0,0,.63-.57c-.57-.5-1.07-1-1.56-1.52-.34-.34-.09-.51.26-.66a2.82,2.82,0,0,0,1-.66,1.39,1.39,0,0,0,.17-2,3.94,3.94,0,0,0-.31-.48,6.53,6.53,0,0,0-.53-.63c-.15-.17-.17-.37.15-.36a23.79,23.79,0,0,0,3.27,0c0,.82,0,1.65,0,2.47-.44.12-.72.32-.72.78v1c0,.32.23.73.61.71l.5,0a.8.8,0,0,0,.67-.8v-.62c0-.22.32-.17.5-.18l1.43,0,.25,2.84,1,.06c-.13-2-.27-4-.39-6C172.23,238.35,172.34,238.24,172.52,238.2Zm-2.59.06h.75c.46,0,.56.33.58.71s0,.91.06,1.37a.51.51,0,0,1-.38.41l-1.44,0c-.05-.67,0-1.34-.08-2C169.46,238.43,169.6,238.26,169.93,238.26Zm-11.82,2.15c.13-.73.27-1.46.41-2.19s.87-.3,1.38-.28c.24.08.33.28.25.65-.14,1-.28,2-.43,3C158.79,241.66,157.91,241.44,158.11,240.41Z" transform="translate(-38.17 -53.16)"/><path class="cls-3" d="M159.9,237.87l-.38-.06a2.73,2.73,0,0,0-.49-.06.53.53,0,0,0-.59.46l-.4,2.18a1,1,0,0,0,.16.88,1.52,1.52,0,0,0,1.21.4h.38l.43-3.06C160.33,238.11,160.12,237.93,159.9,237.87Zm.18.7-.42,3h-.25a1.38,1.38,0,0,1-1.09-.34.9.9,0,0,1-.14-.76l.41-2.18c0-.24.17-.34.44-.34a2.75,2.75,0,0,1,.47.06,1.81,1.81,0,0,0,.38,0C160,238.05,160.17,238.16,160.08,238.57Zm11.28,1.08c0-.23,0-.45,0-.68s-.1-.79-.66-.79h-.75c-.35,0-.54.19-.58.6s0,.67,0,1,0,.67,0,1v.08l1.54-.05a.58.58,0,0,0,.42-.48C171.38,240.11,171.38,239.88,171.36,239.65Zm-.42,1-1.37,0c0-.31,0-.63,0-.94s0-.67,0-1,.16-.44.44-.44h.75c.33,0,.49.19.52.64,0,.23,0,.46,0,.69l0,.67A.46.46,0,0,1,170.94,240.68Zm.42-1c0-.23,0-.45,0-.68s-.1-.79-.66-.79h-.75c-.35,0-.54.19-.58.6s0,.67,0,1,0,.67,0,1v.08l1.54-.05a.58.58,0,0,0,.42-.48C171.38,240.11,171.38,239.88,171.36,239.65Zm-.42,1-1.37,0c0-.31,0-.63,0-.94s0-.67,0-1,.16-.44.44-.44h.75c.33,0,.49.19.52.64,0,.23,0,.46,0,.69l0,.67A.46.46,0,0,1,170.94,240.68Zm-11-2.81-.38-.06a2.73,2.73,0,0,0-.49-.06.53.53,0,0,0-.59.46l-.4,2.18a1,1,0,0,0,.16.88,1.52,1.52,0,0,0,1.21.4h.38l.43-3.06C160.33,238.11,160.12,237.93,159.9,237.87Zm.18.7-.42,3h-.25a1.38,1.38,0,0,1-1.09-.34.9.9,0,0,1-.14-.76l.41-2.18c0-.24.17-.34.44-.34a2.75,2.75,0,0,1,.47.06,1.81,1.81,0,0,0,.38,0C160,238.05,160.17,238.16,160.08,238.57Zm12.44-.3h1l-.07-1.11h-.07l-.76.07c-.49,0-1,.08-1.45.13a43,43,0,0,1-11.17-.3l-1.12-.2c-.76-.15-1.56-.29-2.35-.39h-.08l0,1.08h.08a2.58,2.58,0,0,1,.95.14q-.14.69-.24,1.38c-.07.46-.15.95-.25,1.43a1.69,1.69,0,0,0,1,1.88,3.59,3.59,0,0,0,1.5.25h.1l-.1,1.57,1.08.06v-.07c.1-.79.21-1.78.3-2.74s.2-2,.31-2.73v-.07a.68.68,0,0,0,0-.14c0-.32,0-.32.13-.32h.16c.59.06,1.32.11,2,.14l.21.14-.19.41,0,0c.07,0,.19.16.28.24l.12.11c.74.64,1,1.13.94,1.59a1,1,0,0,1-.86.7c-.39,0-.79-.66-1.05-1.09-.08-.13-.15-.26-.21-.34l0-.06-1,.59,0,.06a12.64,12.64,0,0,0,3.54,4.53l0,0,.05,0a2.21,2.21,0,0,0,.65-.6l0,0-.05,0c-.6-.54-1.13-1.07-1.56-1.52-.1-.1-.15-.2-.13-.27s.21-.2.37-.28a2.84,2.84,0,0,0,1-.67,1.46,1.46,0,0,0,.18-2.05c-.1-.17-.2-.33-.32-.5s-.32-.4-.53-.63-.1-.16-.09-.19.06-.05.14-.05h0a24.48,24.48,0,0,0,3.19,0l.05,2.33a.86.86,0,0,0-.73.84v1a.76.76,0,0,0,.7.79l.49,0a.87.87,0,0,0,.74-.88v-.6c0-.09.1-.13.28-.13H170l1.36,0,.25,2.85,1.13.06v-.08c-.12-1.69-.27-3.9-.39-6C172.3,238.35,172.45,238.29,172.52,238.27Zm-.81,6.15-.26-2.86-1.53,0h-.11c-.12,0-.38,0-.43.25v.62c0,.3-.23.72-.59.73l-.51,0c-.34,0-.53-.38-.53-.64v-1c0-.37.19-.58.67-.71h.06l0-2.61h-.07a24,24,0,0,1-3.27,0h0c-.18,0-.25.07-.28.13s0,.22.12.35a7.78,7.78,0,0,1,.52.62c.11.16.21.32.31.48a1.33,1.33,0,0,1-.16,1.88,2.7,2.7,0,0,1-.94.64c-.22.09-.42.2-.46.39a.47.47,0,0,0,.18.39c.42.44.93,1,1.51,1.48a2,2,0,0,1-.52.48,12.5,12.5,0,0,1-3.42-4.39l.74-.45c0,.08.1.17.16.27.3.48.71,1.16,1.2,1.16a1.07,1.07,0,0,0,1-.81c.14-.66-.45-1.27-1-1.73l-.12-.1a2.4,2.4,0,0,0-.24-.22l.2-.42-.34-.21h0c-.73,0-1.46-.09-2.09-.15h-.14c-.24,0-.27.19-.27.47,0,0,0,.08,0,.11v.07c-.1.79-.2,1.78-.3,2.74s-.2,1.9-.3,2.67l-.78,0,.1-1.56h-.25a3.84,3.84,0,0,1-1.45-.24,1.54,1.54,0,0,1-.89-1.73c.1-.48.17-1,.25-1.43s.15-.95.24-1.43l0-.06-.05,0a2.64,2.64,0,0,0-1-.18l0-.77c.77.11,1.53.24,2.27.38l1.12.2a42.43,42.43,0,0,0,11.21.3q.72-.08,1.44-.12l.68-.06,0,.79h-.82c-.22.06-.35.2-.34.38.12,2.12.27,4.29.38,6Zm-.37-5.45c0-.34-.1-.79-.66-.79h-.75c-.35,0-.54.19-.58.6s0,.67,0,1,0,.67,0,1v.08l1.54-.05a.58.58,0,0,0,.42-.48c0-.23,0-.46,0-.69S171.35,239.2,171.34,239Zm-.4,1.71-1.37,0c0-.31,0-.63,0-.94s0-.67,0-1,.16-.44.44-.44h.75c.33,0,.49.19.52.64,0,.23,0,.46,0,.69l0,.67A.46.46,0,0,1,170.94,240.68Zm-11-2.81-.38-.06a2.73,2.73,0,0,0-.49-.06.53.53,0,0,0-.59.46l-.4,2.18a1,1,0,0,0,.16.88,1.52,1.52,0,0,0,1.21.4h.38l.43-3.06C160.33,238.11,160.12,237.93,159.9,237.87Zm.18.7-.42,3h-.25a1.38,1.38,0,0,1-1.09-.34.9.9,0,0,1-.14-.76l.41-2.18c0-.24.17-.34.44-.34a2.75,2.75,0,0,1,.47.06,1.81,1.81,0,0,0,.38,0C160,238.05,160.17,238.16,160.08,238.57Zm-.18-.7-.38-.06a2.73,2.73,0,0,0-.49-.06.53.53,0,0,0-.59.46l-.4,2.18a1,1,0,0,0,.16.88,1.52,1.52,0,0,0,1.21.4h.38l.43-3.06C160.33,238.11,160.12,237.93,159.9,237.87Zm.18.7-.42,3h-.25a1.38,1.38,0,0,1-1.09-.34.9.9,0,0,1-.14-.76l.41-2.18c0-.24.17-.34.44-.34a2.75,2.75,0,0,1,.47.06,1.81,1.81,0,0,0,.38,0C160,238.05,160.17,238.16,160.08,238.57Zm11.28,1.08c0-.23,0-.45,0-.68s-.1-.79-.66-.79h-.75c-.35,0-.54.19-.58.6s0,.67,0,1,0,.67,0,1v.08l1.54-.05a.58.58,0,0,0,.42-.48C171.38,240.11,171.38,239.88,171.36,239.65Zm-.42,1-1.37,0c0-.31,0-.63,0-.94s0-.67,0-1,.16-.44.44-.44h.75c.33,0,.49.19.52.64,0,.23,0,.46,0,.69l0,.67A.46.46,0,0,1,170.94,240.68Zm-11-2.81-.38-.06a2.73,2.73,0,0,0-.49-.06.53.53,0,0,0-.59.46l-.4,2.18a1,1,0,0,0,.16.88,1.52,1.52,0,0,0,1.21.4h.38l.43-3.06C160.33,238.11,160.12,237.93,159.9,237.87Zm.18.7-.42,3h-.25a1.38,1.38,0,0,1-1.09-.34.9.9,0,0,1-.14-.76l.41-2.18c0-.24.17-.34.44-.34a2.75,2.75,0,0,1,.47.06,1.81,1.81,0,0,0,.38,0C160,238.05,160.17,238.16,160.08,238.57Zm11.28,1.08c0-.23,0-.45,0-.68s-.1-.79-.66-.79h-.75c-.35,0-.54.19-.58.6s0,.67,0,1,0,.67,0,1v.08l1.54-.05a.58.58,0,0,0,.42-.48C171.38,240.11,171.38,239.88,171.36,239.65Zm-.42,1-1.37,0c0-.31,0-.63,0-.94s0-.67,0-1,.16-.44.44-.44h.75c.33,0,.49.19.52.64,0,.23,0,.46,0,.69l0,.67A.46.46,0,0,1,170.94,240.68Z" transform="translate(-38.17 -53.16)"/><path class="cls-6" d="M171,235.53l.75,0v.41a2.06,2.06,0,0,0,0,.26c0,.14,0,.43-.17.43h-.36c-.2,0-.28,0-.3-.26s-.08-.82.05-.83Z" transform="translate(-38.17 -53.16)"/><path class="cls-3" d="M171.84,236.17s0-.06,0-.08a.88.88,0,0,1,0-.16v-.46l-.79,0a.09.09,0,0,0-.06,0,1.48,1.48,0,0,0,0,.73v.11c0,.25.13.29.32.29h.38a.2.2,0,0,0,.14-.06A.58.58,0,0,0,171.84,236.17Zm-.83.19v-.1c0-.21-.05-.61,0-.68l.71,0v.38a1,1,0,0,0,0,.17s0,.06,0,.09a.5.5,0,0,1,0,.35.11.11,0,0,1-.08,0h-.36l0,0v0C171.08,236.58,171,236.55,171,236.36Z" transform="translate(-38.17 -53.16)"/><path class="cls-6" d="M200.58,238.05V238l-1.9-.63c-.28-.09-.66-.33-.75.14,0,.14-.05.29-.07.43l2.71.12Z" transform="translate(-38.17 -53.16)"/><path class="cls-3" d="M198.72,237.29l-.13,0a1.39,1.39,0,0,0-.38-.09c-.19,0-.3.11-.34.34l-.09.51,2.86.12,0-.18Zm-.76.57.06-.34c0-.2.11-.23.19-.23a1.11,1.11,0,0,1,.32.09l.14.05,1.59.53Z" transform="translate(-38.17 -53.16)"/><path class="cls-6" d="M154.2,234l-.69-.12-.06.4a1.17,1.17,0,0,1-.07.25c0,.13-.07.41.1.44l.33.05c.19,0,.28,0,.32-.21s.2-.79.07-.81Z" transform="translate(-38.17 -53.16)"/><path class="cls-3" d="M154.27,234l0,0-.75-.13-.07.44a.42.42,0,0,1,0,.15.29.29,0,0,0,0,.09.53.53,0,0,0,0,.41.2.2,0,0,0,.13.08l.32,0h.12c.14,0,.21-.08.25-.25l0-.1A1.48,1.48,0,0,0,154.27,234Zm-.18.8c0,.21-.12.2-.27.18l-.33-.05-.07,0a.53.53,0,0,1,0-.35s0-.06,0-.08a1.09,1.09,0,0,0,.05-.17l0-.36.66.12a1.69,1.69,0,0,1-.08.65Z" transform="translate(-38.17 -53.16)"/><path class="cls-6" d="M108.44,177.93a14.88,14.88,0,0,0-3.12-.38c-.53,0-1.17.09-1.19.75l-.06,2,9.63.37c0-.78,0-1.56.07-2.34C113.45,177.67,109.22,177.13,108.44,177.93Zm-.45,1.63-2.34-.14a.44.44,0,0,1-.2-.77.41.41,0,0,1,.36-.05l1.74.11C108,178.75,108.32,179.16,108,179.56Zm4.54.23-2.85-.17a.54.54,0,0,1-.24-.94.49.49,0,0,1,.42-.07l2.13.15C112.53,178.79,112.92,179.3,112.53,179.79Z" transform="translate(-38.17 -53.16)"/><path class="cls-3" d="M105.09,175c2.84.27,5.68.62,8.52,1,.48.07.47,0,.43.54s-.87.29-1.31.26c-2.7-.37-5.42-.69-8.13-.94-.33,0-.25,0-.23-.35,0-.51,0-.59.72-.52Z" transform="translate(-38.17 -53.16)"/><path class="cls-6" d="M106,168.08c2.7.6,5.4,1.21,8.11,1.8.1-.3.21-.61.32-.91.17-.51,1.12-.24,1,.3-.06.3-.14.65-.2.95-.21.95-.47.87-1.35.7-2.81-.53-5.52-1.17-8.18-1.88-.18,0-.17,0-.13-.21s.12-.4.17-.61,0-.18.26-.14Z" transform="translate(-38.17 -53.16)"/><path class="cls-6" d="M111.45,173.07l3,0c.09-.27.18-.54.28-.81H111a1.8,1.8,0,0,0-1-.91l-3.45-.61c-.56-.1-1.37.11-1.48.76s-.18,1.07-.26,1.6a.65.65,0,0,0,.63.75l8.37,1.22c.55.09.67-.84.22-.91l-2.68-.43C110.7,173.61,111,173.08,111.45,173.07Zm-2.1.22-2.92-.4c-.62-.08-.42-1,.18-1l2.9.41A.48.48,0,1,1,109.35,173.29Z" transform="translate(-38.17 -53.16)"/><path class="cls-6" d="M113.5,165.08c.07-.37.45-.31.71-.22l2.3.82.27-.91-7.2-2.57a2.74,2.74,0,0,0-1.24-.12c-.64.13-.86,1-1,1.59a1.44,1.44,0,0,0,.93,1.84l7.59,2.27c0-.16.11-.32.16-.47a.48.48,0,0,0-.35-.67l-2-.57c-.25-.14-.26-.26-.22-.5S113.47,165.24,113.5,165.08Zm-1.17-.22c0,.06,0,.12-.08.19l-.22.51c-1.08-.3-2.14-.61-3.22-.9-.88-.38-.67-1.87.53-1.47l2.39.94C112.12,164.25,112.53,164.41,112.33,164.86Z" transform="translate(-38.17 -53.16)"/><polygon class="cls-3" points="98.86 122.37 97.95 121.94 103.37 110.72 104.27 111.15 98.86 122.37"/><path class="cls-3" d="M159.74,212l-2.41-7.59-.69-2.19-2.67-.39-8.27-1.19-.69-2.43-.41-1.42.87-1.17,2.33-3.15,1-1.32.57-1.77,1.74-5.42.52-1.6-.12-.33h0v0l-.53-1.54-2.3-6.75-.58-1.68-1-1.43-3.42-4.73-.67-.93-.81.58.69,1,3.36,4.66.89,1.22.1.14.37,1.08.16.47,2.32,6.79.21.58h0l.33,1-.08.25-.34,1.05L148.42,189l-.55,1.7-1,1.31-2.25,3-1.15,1.55.54,1.89.58,2-3.36-.49-1.61-.23-.49-1.31-2.71-7.22-.1-.28-.17-.45L136,190l1.11-1.1L141,185l1.11-1.1.92-1.81,1.16-2.31.05-.1h0v0l.41-.8-.81-.41-.06,0-5.28-2.65-.77-.39-.46.89.85.43,5.18,2.6v0l-.13.25-1.06,2.1-.83,1.64-1.05,1-3.82,3.81-1.57,1.56.66,1.76,2.76,7.36.67,1.8,1.21.18.41.06h0l.54.07,3.83.56,1.75,6.06v0l.23.8.3,1,1.88.76,8.65,3.49,2.91,1.17Zm-1.57.8-8.66-3.5-1.47-.59-.41-1.42L146,201.7l7.91,1.15,2,.28.5,1.57,2.41,7.6.27.86Z" transform="translate(-38.17 -53.16)"/><path class="cls-6" d="M141.82,162.21a2.24,2.24,0,1,1-2.31,2.24,2.28,2.28,0,0,1,2.31-2.24Z" transform="translate(-38.17 -53.16)"/><path class="cls-6" d="M156.19,200.23a2.24,2.24,0,1,1-2.31,2.23,2.27,2.27,0,0,1,2.31-2.23Z" transform="translate(-38.17 -53.16)"/><polygon class="cls-3" points="105.86 126.92 104.98 126.44 108.98 119.02 109.86 119.49 105.86 126.92"/><polygon class="cls-3" points="112.91 129.75 105.26 126.18 105.69 125.28 113.34 128.84 112.91 129.75"/><polygon class="cls-3" points="108.93 137.29 103.85 131.4 104.61 130.75 109.69 136.64 108.93 137.29"/><polygon class="cls-3" points="105.07 143.56 97.86 137.52 98.5 136.76 105.72 142.79 105.07 143.56"/><polygon class="cls-3" points="108.27 155.69 101.41 148.17 102.16 147.5 109.01 155.02 108.27 155.69"/><path class="cls-6" d="M136.34,173.36a2.13,2.13,0,1,1-2.19,2.13,2.16,2.16,0,0,1,2.19-2.13Z" transform="translate(-38.17 -53.16)"/><path class="cls-5" d="M139.44,198.43a1.78,1.78,0,1,1-1.83,1.77,1.8,1.8,0,0,1,1.83-1.77Z" transform="translate(-38.17 -53.16)"/><path class="cls-5" d="M144,194.93a1.78,1.78,0,1,1-1.83,1.78,1.8,1.8,0,0,1,1.83-1.78Z" transform="translate(-38.17 -53.16)"/><path class="cls-5" d="M147.71,207.29a1.78,1.78,0,1,1-1.83,1.78,1.81,1.81,0,0,1,1.83-1.78Z" transform="translate(-38.17 -53.16)"/><path class="cls-5" d="M148.2,189a1.78,1.78,0,1,1-1.84,1.79A1.82,1.82,0,0,1,148.2,189Z" transform="translate(-38.17 -53.16)"/><path class="cls-5" d="M141.77,181.66a1.78,1.78,0,1,1-1.83,1.77,1.8,1.8,0,0,1,1.83-1.77Z" transform="translate(-38.17 -53.16)"/><path class="cls-5" d="M135.49,188a1.78,1.78,0,1,1-1.83,1.78,1.81,1.81,0,0,1,1.83-1.78Z" transform="translate(-38.17 -53.16)"/><path class="cls-5" d="M147.56,170.5a1.78,1.78,0,1,1-1.83,1.78,1.81,1.81,0,0,1,1.83-1.78Z" transform="translate(-38.17 -53.16)"/><path class="cls-5" d="M151.16,180.42a1.78,1.78,0,1,1-1.84,1.78,1.81,1.81,0,0,1,1.84-1.78Z" transform="translate(-38.17 -53.16)"/><path class="cls-6" d="M159.89,212a2.13,2.13,0,1,1-2.19,2.12,2.17,2.17,0,0,1,2.19-2.12Z" transform="translate(-38.17 -53.16)"/><path class="cls-5" d="M171.12,216a23.72,23.72,0,0,0,7.77-9.58c.23-.42.36-.59.8-.42l1.34.49c.26.09.35.25.27.55a27.21,27.21,0,0,1-5.23,7.76l-.36-.55-1,1.12c-.38.32-.49.07-.48-.47-.4.43-.82.87-1.23,1.29-.24.26-.25-.25-.29-.45l-1.31.6c-.4.17-.61-.11-.3-.34Z" transform="translate(-38.17 -53.16)"/><path class="cls-5" d="M178.73,214.07a8.35,8.35,0,0,1,1.42-.92c-.08.19-.16.38-.25.57s0,.47.33.22l1-.87c0,.12,0,.23,0,.34,0,.32.08.45.41.21a13.16,13.16,0,0,0,3.65-5.11c.15-.33.25-.54-.11-.69l-1-.44a.71.71,0,0,0-.93.29,52.16,52.16,0,0,1-4.63,6.23c-.13.17-.11.35.18.17Z" transform="translate(-38.17 -53.16)"/><path class="cls-5" d="M182.05,205.82c.18-.55.36-1.11.53-1.66s1.62-.21,1.53.36l-.3,1.12c-.07.26-.12.77.23.86l1.36.38a.58.58,0,0,0,.6-.46c.48-1.59.95-3.18,1.44-4.77a3,3,0,0,0,.19-1,24.52,24.52,0,0,1,.28-4.08q2.47-7.72,5-15.45.9-1.69,1.83-3.39a1.51,1.51,0,0,0,.08-1.18,15,15,0,0,1,.07-5.54l1.89-6.18c.14-.58-.7-.79-.84-.09-1,4.54-2.9,8.13-5.81,10.6a.69.69,0,0,0-.24.79,5.4,5.4,0,0,1,0,2.68q-2.58,8-5.19,16a37.19,37.19,0,0,1-2.42,3.37,5.38,5.38,0,0,0-.88,1.49q-.73,2.34-1.46,4.67l0,.12a.49.49,0,0,0,.32.7l1.84.68Z" transform="translate(-38.17 -53.16)"/><path class="cls-11" d="M184.59,181.91a24.11,24.11,0,0,1-2.69-.14l.11-1A26,26,0,0,0,194.37,179l.41,1a27,27,0,0,1-10.19,2Z" transform="translate(-38.17 -53.16)"/><path class="cls-11" d="M180,193.41l-.92-.5a33.47,33.47,0,0,0,4.16-13.12l1.05.09A34.45,34.45,0,0,1,180,193.41Z" transform="translate(-38.17 -53.16)"/><path class="cls-11" d="M202.12,188.59a26.78,26.78,0,0,1-10.4-9.86l.9-.55a25.65,25.65,0,0,0,10,9.49Z" transform="translate(-38.17 -53.16)"/><path class="cls-11" d="M185.31,200.52a19.45,19.45,0,0,0-6.62-9.52l.67-.82a20.56,20.56,0,0,1,7,10Z" transform="translate(-38.17 -53.16)"/><path class="cls-11" d="M194.23,197l-1-.09a30.25,30.25,0,0,1,2.28-10.23l1,.39a29.44,29.44,0,0,0-2.2,9.93Z" transform="translate(-38.17 -53.16)"/><path class="cls-11" d="M184.62,200.13l-.61-.86a26.79,26.79,0,0,1,11.39-4.64l.15,1a25.86,25.86,0,0,0-10.93,4.47Z" transform="translate(-38.17 -53.16)"/><path class="cls-11" d="M196.32,189.59a17.94,17.94,0,0,1-6.24-6.74l.86-.46a17,17,0,0,0,5.9,6.38Z" transform="translate(-38.17 -53.16)"/><path class="cls-11" d="M185.29,185.57l-.21-1c2.64-.56,5.07-1.16,7.41-1.84l.29,1c-2.36.69-4.81,1.29-7.49,1.85Z" transform="translate(-38.17 -53.16)"/><path class="cls-11" d="M184.12,192.37l-1-.42a55.57,55.57,0,0,0,3-8.59l1,.26a55.2,55.2,0,0,1-3.06,8.75Z" transform="translate(-38.17 -53.16)"/><path class="cls-11" d="M190.34,194.58l-1-.29a22.46,22.46,0,0,1,2.46-5.82l.89.56a21.88,21.88,0,0,0-2.34,5.55Z" transform="translate(-38.17 -53.16)"/><path class="cls-11" d="M186.51,195.34a47,47,0,0,0-3.59-5l.81-.67a46.85,46.85,0,0,1,3.67,5.08Z" transform="translate(-38.17 -53.16)"/><path class="cls-11" d="M184.85,194.83l-.45-1a11,11,0,0,1,7.11-1.17l-.2,1a10.12,10.12,0,0,0-6.46,1.09Z" transform="translate(-38.17 -53.16)"/><path class="cls-11" d="M191.89,191.06a20.12,20.12,0,0,1-3.77-4.36l.91-.54a18.91,18.91,0,0,0,3.56,4.12Z" transform="translate(-38.17 -53.16)"/><path class="cls-11" d="M186.72,188.84l-.16-1a37.31,37.31,0,0,0,4.63-1l.29,1a39.82,39.82,0,0,1-4.76,1Z" transform="translate(-38.17 -53.16)"/><path class="cls-2" d="M343.45,259.41a8.07,8.07,0,0,1,1.46,4.84,7,7,0,0,1-1.47,4.67,7.6,7.6,0,0,1-2.42,1.81,7,7,0,0,1,3.66,2.8,8.4,8.4,0,0,1,1.24,4.65,9.2,9.2,0,0,1-1.42,5.05,8.66,8.66,0,0,1-2.24,2.5,8.83,8.83,0,0,1-3.59,1.59,21.7,21.7,0,0,1-4.48.43H319.9V256h15.33Q341,256.12,343.45,259.41Zm-17.22,2.13v7h7.71a6.41,6.41,0,0,0,3.35-.79,3,3,0,0,0,1.29-2.79,2.84,2.84,0,0,0-1.7-2.92,11.94,11.94,0,0,0-3.75-.5Zm0,12.25v8.45h7.7a7.4,7.4,0,0,0,3.21-.56q2.08-1,2.09-4a3.41,3.41,0,0,0-2-3.4,8,8,0,0,0-3.17-.53Z" transform="translate(-38.17 -53.16)"/><path class="cls-2" d="M357.67,287.75h-6.59V256h6.59Z" transform="translate(-38.17 -53.16)"/><path class="cls-2" d="M386.91,256v5.62h-9.49v26.1h-6.67v-26.1h-9.53V256Z" transform="translate(-38.17 -53.16)"/><path class="cls-2" d="M395.56,278a6.4,6.4,0,0,0,1.2,3.25c1.1,1.3,3,2,5.65,2a12,12,0,0,0,3.89-.52,3.69,3.69,0,0,0,2.83-3.68,2.7,2.7,0,0,0-1.38-2.43,15.15,15.15,0,0,0-4.41-1.48l-3.43-.76q-5.07-1.11-7-2.43c-2.14-1.46-3.2-3.75-3.2-6.86a9.12,9.12,0,0,1,3.13-7.08q3.14-2.82,9.22-2.82a14.15,14.15,0,0,1,8.66,2.66,9.44,9.44,0,0,1,3.75,7.71h-6.37a4.54,4.54,0,0,0-2.55-4.07,8.8,8.8,0,0,0-3.95-.79,7.55,7.55,0,0,0-4.2,1,3.27,3.27,0,0,0-1.56,2.88,2.71,2.71,0,0,0,1.54,2.54,19.33,19.33,0,0,0,4.22,1.32l5.56,1.31a14.16,14.16,0,0,1,5.49,2.3,7.76,7.76,0,0,1,2.83,6.48,9.12,9.12,0,0,1-3.36,7.22q-3.36,2.87-9.49,2.87t-9.85-2.83a9.38,9.38,0,0,1-3.59-7.78Z" transform="translate(-38.17 -53.16)"/><path class="cls-2" d="M453.71,274q-2.79,2.33-8,2.33h-6.6v11.4h-6.58V256h13.61a11,11,0,0,1,7.51,2.46q2.81,2.44,2.8,7.59C456.49,269.83,455.56,272.47,453.71,274Zm-5.06-11.42a5.3,5.3,0,0,0-3.53-1.06h-6v9.34h6a5.06,5.06,0,0,0,3.53-1.14,4.64,4.64,0,0,0,1.26-3.61A4.37,4.37,0,0,0,448.65,262.6Z" transform="translate(-38.17 -53.16)"/><path class="cls-2" d="M467.62,261.5H461.4v-5.66h6.22Zm-6.22,2.8h6.22v23.45H461.4Z" transform="translate(-38.17 -53.16)"/><path class="cls-2" d="M479.82,287.75h-6.14V256h6.14Z" transform="translate(-38.17 -53.16)"/><path class="cls-2" d="M495.09,273.48a9.87,9.87,0,0,0,2.45-.53,1.86,1.86,0,0,0,1.32-1.75,2.07,2.07,0,0,0-1-2,6.5,6.5,0,0,0-3-.55,3.9,3.9,0,0,0-3.12,1.08,4.36,4.36,0,0,0-.87,2.15H485a9,9,0,0,1,1.73-5.05q2.44-3.1,8.38-3.1a15,15,0,0,1,6.88,1.53c2,1,3,2.94,3,5.76v10.76c0,.75,0,1.65,0,2.71a3.38,3.38,0,0,0,.37,1.64,2.28,2.28,0,0,0,.9.71v.9h-6.67a7.22,7.22,0,0,1-.39-1.33c-.07-.42-.13-.89-.17-1.42a12.68,12.68,0,0,1-2.94,2.34,8.91,8.91,0,0,1-4.5,1.14,7.76,7.76,0,0,1-5.3-1.82,6.46,6.46,0,0,1-2.08-5.15,6.68,6.68,0,0,1,3.36-6.26,15,15,0,0,1,5.42-1.51Zm3.75,2.87a7.3,7.3,0,0,1-1.19.59,10.2,10.2,0,0,1-1.65.42l-1.39.26a9.18,9.18,0,0,0-2.82.84,2.78,2.78,0,0,0-1.45,2.6,2.72,2.72,0,0,0,.88,2.27,3.35,3.35,0,0,0,2.16.7,6.43,6.43,0,0,0,3.7-1.16c1.13-.78,1.71-2.19,1.76-4.24Z" transform="translate(-38.17 -53.16)"/><path class="cls-2" d="M529.22,265.64q2.29,1.91,2.3,6.32v15.79h-6.28V273.48a6.53,6.53,0,0,0-.49-2.84,3.46,3.46,0,0,0-3.42-1.8,4.24,4.24,0,0,0-4.25,2.64,9.19,9.19,0,0,0-.6,3.58v12.69h-6.13V264.34h5.94v3.42a10.33,10.33,0,0,1,2.23-2.6,7.69,7.69,0,0,1,4.78-1.42A9,9,0,0,1,529.22,265.64Z" transform="translate(-38.17 -53.16)"/><path class="cls-2" d="M543.53,261.5h-6.22v-5.66h6.22Zm-6.22,2.8h6.22v23.45h-6.22Z" transform="translate(-38.17 -53.16)"/><path class="cls-2" d="M562.16,287.75V256h6.59v12.1h12.33V256h6.58v31.72h-6.58V273.59H568.75v14.16Z" transform="translate(-38.17 -53.16)"/><path class="cls-2" d="M594.46,292.25l.78,0a9.73,9.73,0,0,0,1.72-.06,3.15,3.15,0,0,0,1.37-.5,3.2,3.2,0,0,0,1-1.53,3.49,3.49,0,0,0,.4-1.42l-8.62-24.48h6.83l5.12,17.3,4.84-17.3h6.52l-8,23.06q-2.34,6.67-3.69,8.28c-.91,1.06-2.72,1.6-5.43,1.6H596c-.33,0-.83,0-1.49-.08Z" transform="translate(-38.17 -53.16)"/><path class="cls-2" d="M630.48,264.67a7.52,7.52,0,0,1,2.69,2.6V256.08h6.22v31.67h-6V284.5a8.79,8.79,0,0,1-3,3,8.42,8.42,0,0,1-4.18.94,8.75,8.75,0,0,1-6.92-3.32,12.78,12.78,0,0,1-2.8-8.53c0-4,.92-7.15,2.76-9.45a9,9,0,0,1,7.39-3.44A7.63,7.63,0,0,1,630.48,264.67ZM632,281.38a8.57,8.57,0,0,0,1.35-5q0-4.31-2.17-6.16a4.7,4.7,0,0,0-3.1-1.11,4.3,4.3,0,0,0-4,2,11,11,0,0,0,0,10.24,4.34,4.34,0,0,0,3.89,1.95A4.55,4.55,0,0,0,632,281.38Z" transform="translate(-38.17 -53.16)"/><path class="cls-2" d="M660.24,264.77a9.61,9.61,0,0,1,4.06,3.47,11.49,11.49,0,0,1,1.86,4.85,29.27,29.27,0,0,1,.21,4.66H649.28q.15,3.53,2.46,4.94a6.19,6.19,0,0,0,3.38.89,4.81,4.81,0,0,0,4.67-2.69h6.26a7.73,7.73,0,0,1-2.28,4.24q-3.15,3.42-8.82,3.42a12.8,12.8,0,0,1-8.26-2.89q-3.59-2.88-3.58-9.39,0-6.09,3.23-9.35a11.33,11.33,0,0,1,8.39-3.25A13.35,13.35,0,0,1,660.24,264.77Zm-9.17,5.3a6.31,6.31,0,0,0-1.63,3.63H660a5.12,5.12,0,0,0-1.63-3.71,5.39,5.39,0,0,0-3.64-1.26A4.89,4.89,0,0,0,651.07,270.07Z" transform="translate(-38.17 -53.16)"/><path class="cls-2" d="M682.5,263.75l.52,0v6.28c-.38,0-.73-.07-1-.08s-.54,0-.73,0c-2.47,0-4.12.8-5,2.41a9.39,9.39,0,0,0-.71,4.17v11.21H669.4V264.3h5.86v4.09a12.72,12.72,0,0,1,2.47-3.21,6.75,6.75,0,0,1,4.48-1.44Z" transform="translate(-38.17 -53.16)"/><path class="cls-2" d="M695.91,273.48a10,10,0,0,0,2.45-.53,1.86,1.86,0,0,0,1.32-1.75,2.06,2.06,0,0,0-1-2,6.43,6.43,0,0,0-3-.55,3.9,3.9,0,0,0-3.12,1.08,4.36,4.36,0,0,0-.87,2.15h-5.92a8.91,8.91,0,0,1,1.73-5.05c1.62-2.07,4.42-3.1,8.38-3.1a14.91,14.91,0,0,1,6.87,1.53c2,1,3,2.94,3,5.76v10.76c0,.75,0,1.65,0,2.71a3.38,3.38,0,0,0,.37,1.64,2.28,2.28,0,0,0,.9.71v.9h-6.67a6.52,6.52,0,0,1-.39-1.33c-.07-.42-.13-.89-.17-1.42a12.68,12.68,0,0,1-2.94,2.34,8.91,8.91,0,0,1-4.5,1.14,7.76,7.76,0,0,1-5.3-1.82,6.46,6.46,0,0,1-2.08-5.15,6.68,6.68,0,0,1,3.36-6.26,15,15,0,0,1,5.41-1.51Zm3.75,2.87a7.3,7.3,0,0,1-1.19.59,10.2,10.2,0,0,1-1.65.42l-1.4.26a9.19,9.19,0,0,0-2.81.84,2.78,2.78,0,0,0-1.45,2.6,2.72,2.72,0,0,0,.88,2.27,3.35,3.35,0,0,0,2.15.7,6.46,6.46,0,0,0,3.71-1.16c1.13-.78,1.71-2.19,1.76-4.24Z" transform="translate(-38.17 -53.16)"/><path class="cls-2" d="M731.15,267.12a13.43,13.43,0,0,1,2.63,8.6,15.06,15.06,0,0,1-2.59,9.06,9.43,9.43,0,0,1-11.94,2.43A9.23,9.23,0,0,1,717,284.8v2.95h-6.05V256.08H717v11.27a8.9,8.9,0,0,1,2.58-2.49,7.67,7.67,0,0,1,4.24-1.08A8.74,8.74,0,0,1,731.15,267.12ZM726,281.4a8.68,8.68,0,0,0,1.32-5,11.32,11.32,0,0,0-.65-4.13,4.53,4.53,0,0,0-4.56-3.1,4.6,4.6,0,0,0-4.62,3,11.42,11.42,0,0,0-.65,4.18,8.66,8.66,0,0,0,1.35,5,4.61,4.61,0,0,0,4.1,2A4.26,4.26,0,0,0,726,281.4Z" transform="translate(-38.17 -53.16)"/><path class="cls-2" d="M747.33,273.48a9.87,9.87,0,0,0,2.45-.53,1.86,1.86,0,0,0,1.32-1.75,2.06,2.06,0,0,0-1-2,6.5,6.5,0,0,0-3-.55,3.9,3.9,0,0,0-3.12,1.08,4.55,4.55,0,0,0-.87,2.15H737.2a9,9,0,0,1,1.73-5.05q2.45-3.1,8.39-3.1a14.91,14.91,0,0,1,6.87,1.53c2,1,3,2.94,3,5.76v10.76c0,.75,0,1.65,0,2.71a3.41,3.41,0,0,0,.36,1.64,2.25,2.25,0,0,0,.91.71v.9h-6.67a6.52,6.52,0,0,1-.39-1.33c-.07-.42-.13-.89-.17-1.42a12.74,12.74,0,0,1-2.95,2.34,8.85,8.85,0,0,1-4.5,1.14,7.73,7.73,0,0,1-5.29-1.82,6.47,6.47,0,0,1-2.09-5.15,6.68,6.68,0,0,1,3.36-6.26,15.07,15.07,0,0,1,5.42-1.51Zm3.75,2.87a6.93,6.93,0,0,1-1.19.59,10.32,10.32,0,0,1-1.64.42l-1.4.26a9.18,9.18,0,0,0-2.82.84,2.79,2.79,0,0,0-1.45,2.6,2.72,2.72,0,0,0,.89,2.27,3.35,3.35,0,0,0,2.15.7,6.43,6.43,0,0,0,3.7-1.16c1.13-.78,1.72-2.19,1.76-4.24Z" transform="translate(-38.17 -53.16)"/><path class="cls-2" d="M775,264.67a7.52,7.52,0,0,1,2.69,2.6V256.08h6.22v31.67h-6V284.5a8.88,8.88,0,0,1-3,3,8.45,8.45,0,0,1-4.18.94,8.75,8.75,0,0,1-6.92-3.32,12.78,12.78,0,0,1-2.8-8.53c0-4,.92-7.15,2.76-9.45a9,9,0,0,1,7.39-3.44A7.63,7.63,0,0,1,775,264.67Zm1.5,16.71a8.5,8.5,0,0,0,1.36-5q0-4.31-2.17-6.16a4.72,4.72,0,0,0-3.1-1.11,4.3,4.3,0,0,0-4,2,11,11,0,0,0,0,10.24,4.33,4.33,0,0,0,3.89,1.95A4.52,4.52,0,0,0,776.49,281.38Z" transform="translate(-38.17 -53.16)"/><path class="cls-2" d="M805.24,259.35a13,13,0,0,1,9.75-3.92q7.92,0,11.58,5.25a11.54,11.54,0,0,1,2.17,5.92h-6.63a9,9,0,0,0-1.62-3.44,7.19,7.19,0,0,0-10.84.85q-2,2.91-2,8.25t2.16,8a6.75,6.75,0,0,0,5.48,2.66,6.23,6.23,0,0,0,5.2-2.28,10.15,10.15,0,0,0,1.64-3.68h6.58a14.23,14.23,0,0,1-4.35,8.43,12.65,12.65,0,0,1-9,3.25q-6.76,0-10.65-4.39t-3.87-12.09Q800.83,263.84,805.24,259.35Z" transform="translate(-38.17 -53.16)"/><path class="cls-2" d="M842.83,273.48a9.76,9.76,0,0,0,2.44-.53,1.86,1.86,0,0,0,1.33-1.75,2.06,2.06,0,0,0-1-2,6.46,6.46,0,0,0-3-.55,3.9,3.9,0,0,0-3.12,1.08,4.46,4.46,0,0,0-.88,2.15H832.7a8.91,8.91,0,0,1,1.73-5.05c1.62-2.07,4.42-3.1,8.38-3.1a14.91,14.91,0,0,1,6.87,1.53c2,1,3,2.94,3,5.76v10.76c0,.75,0,1.65,0,2.71a3.27,3.27,0,0,0,.37,1.64,2.28,2.28,0,0,0,.9.71v.9h-6.67a6.52,6.52,0,0,1-.39-1.33c-.07-.42-.13-.89-.17-1.42a12.68,12.68,0,0,1-2.94,2.34,8.92,8.92,0,0,1-4.51,1.14,7.73,7.73,0,0,1-5.29-1.82,6.47,6.47,0,0,1-2.09-5.15,6.68,6.68,0,0,1,3.36-6.26,15.07,15.07,0,0,1,5.42-1.51Zm3.75,2.87a7.3,7.3,0,0,1-1.19.59,10.2,10.2,0,0,1-1.65.42l-1.4.26a9.36,9.36,0,0,0-2.82.84,2.79,2.79,0,0,0-1.44,2.6,2.72,2.72,0,0,0,.88,2.27,3.35,3.35,0,0,0,2.15.7,6.46,6.46,0,0,0,3.71-1.16c1.13-.78,1.71-2.19,1.76-4.24Z" transform="translate(-38.17 -53.16)"/><path class="cls-2" d="M887.31,264.38a6.88,6.88,0,0,1,2.73,2.11,6.74,6.74,0,0,1,1.33,3,20.12,20.12,0,0,1,.22,3.47l0,14.78h-6.29V272.82a4.9,4.9,0,0,0-.43-2.2,3,3,0,0,0-3-1.63,3.53,3.53,0,0,0-3.51,2.11,6.6,6.6,0,0,0-.49,2.69v14h-6.18v-14a7.79,7.79,0,0,0-.43-3,3,3,0,0,0-3-1.7c-1.75,0-2.93.57-3.53,1.7a6.59,6.59,0,0,0-.49,2.89v14.11h-6.22V264.34h6v3.42a9.61,9.61,0,0,1,2.15-2.6,8.51,8.51,0,0,1,9-.2,7,7,0,0,1,2,2.82,7.84,7.84,0,0,1,3-3,9.1,9.1,0,0,1,4.22-1A8.25,8.25,0,0,1,887.31,264.38Z" transform="translate(-38.17 -53.16)"/><path class="cls-2" d="M917,266.81q2.87,3,2.87,8.91,0,6.19-2.81,9.45a9.1,9.1,0,0,1-7.22,3.25,7.63,7.63,0,0,1-4.68-1.4,9.28,9.28,0,0,1-2-2.26V297h-6.07V264.3h5.88v3.46a9.8,9.8,0,0,1,2.12-2.41,7.81,7.81,0,0,1,4.9-1.57A9.28,9.28,0,0,1,917,266.81Zm-4.71,4.42a4.34,4.34,0,0,0-4-2.09,4.6,4.6,0,0,0-4.63,3.16,11.78,11.78,0,0,0-.65,4.26c0,2.73.73,4.64,2.19,5.75a5.07,5.07,0,0,0,3.09,1,4.47,4.47,0,0,0,3.94-2,10.36,10.36,0,0,0,.11-10.07Z" transform="translate(-38.17 -53.16)"/><path class="cls-2" d="M930.26,264.3v14.13a7.37,7.37,0,0,0,.47,3,3.24,3.24,0,0,0,3.27,1.78,4.26,4.26,0,0,0,4.28-2.54,9.18,9.18,0,0,0,.6-3.63V264.3h6.22v23.45h-6v-3.31c-.06.07-.2.28-.43.64a4.38,4.38,0,0,1-.81.95,8.47,8.47,0,0,1-2.78,1.76,9.34,9.34,0,0,1-3.14.48q-5.21,0-7-3.75a14.35,14.35,0,0,1-1-6.09V264.3Z" transform="translate(-38.17 -53.16)"/><path class="cls-2" d="M955.82,280.26a4.13,4.13,0,0,0,.84,2.33c.77.81,2.18,1.22,4.24,1.22a6.5,6.5,0,0,0,2.89-.54,1.71,1.71,0,0,0,1.07-1.61,1.73,1.73,0,0,0-.87-1.57,35.32,35.32,0,0,0-6.41-1.85,13.34,13.34,0,0,1-5.64-2.47,5.38,5.38,0,0,1-1.63-4.22,7.33,7.33,0,0,1,2.55-5.59q2.57-2.32,7.2-2.33a13.22,13.22,0,0,1,7.17,1.75q2.76,1.75,3.18,6.06h-6.14a3.64,3.64,0,0,0-.66-1.87,4.24,4.24,0,0,0-3.46-1.25,5,5,0,0,0-2.86.62,1.83,1.83,0,0,0-.85,1.47,1.6,1.6,0,0,0,.91,1.53,40,40,0,0,0,6.4,1.7,11.73,11.73,0,0,1,5.49,2.6,5.9,5.9,0,0,1,1.81,4.41,7.1,7.1,0,0,1-2.6,5.69q-2.6,2.21-8,2.21t-8.18-2.34a7.58,7.58,0,0,1-2.64-5.95Z" transform="translate(-38.17 -53.16)"/><path class="cls-2" d="M358,121a17.06,17.06,0,0,0,5.94,6.5,47,47,0,0,0,11.87,5.58q7.58,2.55,19.21,5.34a184.28,184.28,0,0,1,22.71,7.2,56.8,56.8,0,0,1,16.41,9.64,38,38,0,0,1,9.9,13.24,43.21,43.21,0,0,1,3.38,17.77A48,48,0,0,1,443.1,207a43.87,43.87,0,0,1-11.86,15.32A52.22,52.22,0,0,1,413,231.81a80.35,80.35,0,0,1-23.44,3.25,102.48,102.48,0,0,1-36-6.39,98.12,98.12,0,0,1-31.81-19.62l17.18-20.44a100.09,100.09,0,0,0,23.92,15.68,66,66,0,0,0,27.41,5.45q13.25,0,21-5.57a17.62,17.62,0,0,0,7.78-15.1,19.58,19.58,0,0,0-1.51-7.89,15.85,15.85,0,0,0-5.59-6.39,47.1,47.1,0,0,0-11.18-5.46A189.75,189.75,0,0,0,382.24,164a194.5,194.5,0,0,1-23.17-6.74,58.78,58.78,0,0,1-17-9.29,36.85,36.85,0,0,1-10.48-13.47q-3.6-7.89-3.6-19.28a44.61,44.61,0,0,1,4.14-19.39,45.57,45.57,0,0,1,11.4-15A50.73,50.73,0,0,1,361,71.2a70.79,70.79,0,0,1,22.27-3.37,93.25,93.25,0,0,1,32.17,5.23,95.83,95.83,0,0,1,26.83,15.21l-15.33,21.6a99.33,99.33,0,0,0-22.07-12.42,59.69,59.69,0,0,0-22.06-4.3q-12.54,0-19.51,5.69t-7,13.82A19.54,19.54,0,0,0,358,121Z" transform="translate(-38.17 -53.16)"/><path class="cls-2" d="M633.17,232.74H603l-16.49-39.26H509.61l-16.72,39.26H463.62L535.16,69h26.48Zm-85.24-129.6-27.87,65h56Z" transform="translate(-38.17 -53.16)"/><path class="cls-2" d="M765.32,232.74l-40.07-56.67H689.38v56.67H661V70.16H733.5a82.55,82.55,0,0,1,25.2,3.6,54.62,54.62,0,0,1,19,10.22,44.13,44.13,0,0,1,12,16.25,53.43,53.43,0,0,1,4.18,21.49A53.44,53.44,0,0,1,791,140a47.1,47.1,0,0,1-8,14.17,48.06,48.06,0,0,1-12.19,10.45,60.3,60.3,0,0,1-15.68,6.62L799,232.74ZM756,102.82q-8.85-6.88-24.92-6.88h-41.7v54.81h41.93q15.38,0,24.46-7.46t9.09-20.06Q764.86,109.7,756,102.82Z" transform="translate(-38.17 -53.16)"/><path class="cls-2" d="M957.28,218.69a86.75,86.75,0,0,1-14.75,9.05,73.93,73.93,0,0,1-17.3,5.81,101.83,101.83,0,0,1-20.79,2,82.6,82.6,0,0,1-33-6.5,81,81,0,0,1-26.13-17.77A81.88,81.88,0,0,1,828,184.66a86.26,86.26,0,0,1-6.27-33,87.14,87.14,0,0,1,6.15-32.75A81.06,81.06,0,0,1,871.69,74a84.7,84.7,0,0,1,33.91-6.62,102.57,102.57,0,0,1,20.33,1.86,83,83,0,0,1,16.84,5.22,78.74,78.74,0,0,1,14.16,8,109.93,109.93,0,0,1,12.31,10.22l-18.35,21.13a91.58,91.58,0,0,0-20.67-14.63,53.83,53.83,0,0,0-24.85-5.58,50.87,50.87,0,0,0-21.48,4.53,53.38,53.38,0,0,0-17.07,12.31,55.31,55.31,0,0,0-11.15,18.24,63,63,0,0,0-3.95,22.52,64,64,0,0,0,3.95,22.65,56.22,56.22,0,0,0,11.15,18.46,52.38,52.38,0,0,0,17.07,12.43,50.87,50.87,0,0,0,21.48,4.53q14.86,0,25.55-5.69a100.28,100.28,0,0,0,21.14-15.45l18.34,18.58A104.36,104.36,0,0,1,957.28,218.69Z" transform="translate(-38.17 -53.16)"/></svg>