<svg id="Layer_2" data-name="Layer 2" xmlns="http://www.w3.org/2000/svg" width="24" height="24" viewBox="0 0 24 24">
  <g id="radio">
    <rect id="Rectangle_11" data-name="Rectangle 11" width="24" height="24" fill="#fff" opacity="0"/>
    <path id="Path_12" data-name="Path 12" d="M12,8a3,3,0,0,0-1,5.83A1,1,0,0,0,11,14v6a1,1,0,0,0,2,0V14a1,1,0,0,0,0-.17A3,3,0,0,0,12,8Zm0,4a1,1,0,1,1,1-1A1,1,0,0,1,12,12Z" fill="#fff"/>
    <path id="Path_13" data-name="Path 13" d="M3.5,11A6.87,6.87,0,0,1,6.14,5.77,1,1,0,0,0,4.86,4.23,8.84,8.84,0,0,0,1.5,11a8.84,8.84,0,0,0,3.36,6.77,1,1,0,0,0,1.28-1.54A6.87,6.87,0,0,1,3.5,11Z" fill="#fff"/>
    <path id="Path_14" data-name="Path 14" d="M16.64,6.24a1,1,0,0,0-1.28,1.52A4.28,4.28,0,0,1,17,11a4.28,4.28,0,0,1-1.64,3.24.994.994,0,1,0,1.28,1.52A6.2,6.2,0,0,0,19,11a6.2,6.2,0,0,0-2.36-4.76Z" fill="#fff"/>
    <path id="Path_15" data-name="Path 15" d="M8.76,6.36a1,1,0,0,0-1.4-.12A6.2,6.2,0,0,0,5,11a6.2,6.2,0,0,0,2.36,4.76.994.994,0,0,0,1.28-1.52A4.28,4.28,0,0,1,7,11,4.28,4.28,0,0,1,8.64,7.76,1,1,0,0,0,8.76,6.36Z" fill="#fff"/>
    <path id="Path_16" data-name="Path 16" d="M19.14,4.23a1,1,0,0,0-1.28,1.54A6.87,6.87,0,0,1,20.5,11a6.87,6.87,0,0,1-2.64,5.23,1,1,0,0,0,1.28,1.54A8.84,8.84,0,0,0,22.5,11a8.84,8.84,0,0,0-3.36-6.77Z" fill="#fff"/>
  </g>
</svg>
